<!-- Created with Inkscape (http://www.inkscape.org/) -->
<svg width="16" height="16" version="1.1" viewBox="0 0 16 16" xmlns="http://www.w3.org/2000/svg">
	<path d="m4 2v1h-1v1h-1v8h1v1h1v1h8v-1h1v-1h1v-8h-1v-1h-1v-1h-7z" style="fill:#eeeeee"/>
	<path d="m2 0v1h-1v1h-1v1 10 1h1v1h1v1h12v-1h1v-1h1v-1-10-1h-1v-1h-1v-1h-3v1h2v1h1v1h1v10h-1v1h-1v1h-10v-1h-1v-1h-1v-10h1v-1h1v-1h2v-1h-3zm2 5v1h-1v1h1v1h1v-1h1v-1h-1v-1h-1zm5 0v1h1v-1h-1zm-2 2v1h1v-1h-1zm2 0v1h1v-1h-1zm-6 2v1h1v-1h-1zm2 0v1h1v-1h-1zm2 0v1h1v-1h-1zm2 0v1h1v-1h-1zm-6 2v1h1v-1h-1zm2 0v1h1v-1h-1zm2 0v1h1v-1h-1zm2 0v1h1v-1h-1z" style="fill:#000000"/>
	<path d="m6 0v1h4v-1z"/>
	<path d="m5 0v3h1v-3h-1zm5 0v3h1v-3h-1z" style="fill:#395c98"/>
	<path d="m3 1v1h-1v1h-1v1 8 1h1v1h1v1h10v-1h1v-1h1v-1-8-1h-1v-1h-1v-1h-2v1h1v1h1v1h1v8h-1v1h-1v1h-8v-1h-1v-1h-1v-8h1v-1h1v-1h1v-1h-2zm3 0v1h4v-1h-4z" style="fill:#edc7b0"/>
	<path d="m11 5v1h1v-1h-1zm0 2v1h1v-1h-1zm0 2v1h1v-1h-1zm0 2v1h1v-1h-1z" style="fill:#d4186c"/>
	<path d="m7 5h1v1h-1z" style="fill:#e9c35b"/>
</svg>
