<!-- Created with Inkscape (http://www.inkscape.org/) -->
<svg width="146" height="20" version="1.1" viewBox="0 0 146 20" xmlns="http://www.w3.org/2000/svg">
	<g transform="translate(43 -22)">
		<path id="shadow" d="m73 26v3h1v1h1v1h-1v1h-1v3h3v-3h1v-1h1v1h1v3h3v-3h-1v-1h-1v-1h1v-1h1v-3h-3v3h-1v1h-1v-1h-1v-3h-3zm12 0v4h1v1h1v4h3v-4h1v-1h1v-4h-3v4h-3v-4h-3zm9 0v1h6v1h-1v1h-1v1h-1v1h-1v3h10v-1h-6v-1h1v-1h1v-1h1v-1h1v-3h-10zm-134 0.9v15h11v-2h2v-2h2v-6h-2v-2h-2v-2h-11zm18 0v2h-2v11h2v2h11v-2h2v-11h-2v-2h-11zm14 0v9h2v2h2v2h2v2h2v-2h2v-2h2v-2h2v-9h-4v6h-2v2h-2v-2h-2v-6h-4zm18 0v6h2v2h2v6h4v-6h2v-2h2v-6h-4v6h-4v-6h-4zm14 0v15h11v-2h2v-2h2v-6h-2v-2h-2v-2h-11zm21 0v2h-2v2h-2v11h4v-4h6v4h4v-11h-2v-2h-2v-2h-6zm14 0v2h-2v4h2v2h9v4h-6v-2h-4v2h2v2h11v-2h2v-4h-2v-2h-9v-4h6v2h4v-2h-2v-2h-11zm-95 2h4v2h2v6h-2v2h-4v-11zm16 0h6v11h-6v-11zm49 0h4v2h2v6h-2v2h-4v-11zm18 0h2v2h2v4h-6v-4h2v-2z" style="opacity:.9"/>
		<path id="text" d="m71 22v3h1v1h1v1h-1v1h-1v3h3v-3h1v-1h1v1h1v3h3v-3h-1v-1h-1v-1h1v-1h1v-3h-3v3h-1v1h-1v-1h-1v-3h-3zm12 0v4h1v1h1v4h3v-4h1v-1h1v-4h-3v4h-3v-4h-3zm9 0v1h6v1h-1v1h-1v1h-1v1h-1v3h10v-1h-6v-1h1v-1h1v-1h1v-1h1v-3h-10zm-134 0.9v15h11v-2h2v-2h2v-6h-2v-2h-2v-2h-11zm18 0v2h-2v11h2v2h11v-2h2v-11h-2v-2h-11zm14 0v9h2v2h2v2h2v2h2v-2h2v-2h2v-2h2v-9h-4v6h-2v2h-2v-2h-2v-6h-4zm18 0v6h2v2h2v6h4v-6h2v-2h2v-6h-4v6h-4v-6h-4zm14 0v15h11v-2h2v-2h2v-6h-2v-2h-2v-2h-11zm21 0v2h-2v2h-2v11h4v-4h6v4h4v-11h-2v-2h-2v-2h-6zm14 0v2h-2v4h2v2h9v4h-6v-2h-4v2h2v2h11v-2h2v-4h-2v-2h-9v-4h6v2h4v-2h-2v-2h-11zm-95 2h4v2h2v6h-2v2h-4v-11zm16 0h6v11h-6v-11zm49 0h4v2h2v6h-2v2h-4v-11zm18 0h2v2h2v4h-6v-4h2v-2z" style="fill:#e9c35b"/>
	</g>
</svg>
