<svg xmlns="http://www.w3.org/2000/svg" viewBox="0 -0.5 16 16" shape-rendering="crispEdges">
<metadata>Made with Pixels to Svg https://codepen.io/shshaw/pen/XbxvNj</metadata>
<path stroke="#000000" d="M7 0h2M3 1h1M6 1h1M9 1h1M12 1h1M2 2h1M4 2h1M6 2h1M9 2h1M11 2h1M13 2h1M1 3h1M5 3h1M10 3h1M14 3h1M2 4h1M13 4h1M3 5h1M7 5h2M12 5h1M1 6h2M6 6h1M9 6h1M13 6h2M0 7h1M5 7h1M10 7h1M15 7h1M0 8h1M5 8h1M10 8h1M15 8h1M1 9h2M6 9h1M9 9h1M13 9h2M3 10h1M7 10h2M12 10h1M2 11h1M13 11h1M1 12h1M5 12h1M10 12h1M14 12h1M2 13h1M4 13h1M6 13h1M9 13h1M11 13h1M13 13h1M3 14h1M6 14h1M9 14h1M12 14h1M7 15h2" />
<path stroke="#70c6a9" d="M7 1h2M3 2h1M7 2h2M12 2h1M2 3h3M6 3h4M11 3h3M3 4h10M4 5h3M9 5h3M3 6h3M10 6h3M1 7h4M11 7h4M1 8h4M11 8h4M3 9h3M10 9h3M4 10h3M9 10h3M3 11h10M2 12h3M6 12h4M11 12h3M3 13h1M7 13h2M12 13h1M7 14h2" />
</svg>