<!-- Created with Inkscape (http://www.inkscape.org/) -->
<svg width="16" height="16" version="1.1" viewBox="0 0 16 16" xmlns="http://www.w3.org/2000/svg">
	<path d="m6 0v1h-1v1h-1v1h-1v1h-1v1h-1v1h1 1v-1h1v-1h1v-1h1v-1h1v-1h1 2v-1h-2-2zm4 1v1h1v-1h-1zm1 1v1h1v-1h-1zm1 1v1h1v-1h-1zm1 1v1h1v-1h-1zm1 1v1h1v-1h-1zm1 1v1h1v-1h-1zm0 1h-1v8h-12v-8h-1v9h1 12 1v-9zm-14 0v-1h-1v1h1zm7 6v1h1v-1h-1z"/>
	<path d="m9 1v1h1v-1h-1zm1 1v1h1v-1h-1zm1 1v1h1v-1h-1zm1 1v1h1v-1h-1zm1 1v1h1v-1h-1zm-5 2v1h1v-1h-1z" style="fill:#eeeeee"/>
	<path d="m7 1v1h-1v1h-1v1h-1v1h-1v1h10v-1h-1v-1h-1v-1h-1v-1h-1v-1h-2zm0 11v1 1 1h2v-1h-1v-1h1v-1h-2z" style="fill:#8b4852"/>
	<path d="m1 6v1h1v8h1 1v-1h-1v-1h1v-1h-1v-1h1v-1h-1v-1h1v-1h-1v-2h-1-1zm6 0v1h1 1v-1h-1-1zm2 1v1 1h1v-1-1h-1zm0 2h-1-1v1h1 1v-1zm-2 0v-1-1h-1v1 1h1zm6-3v2h-1v1h1v1h-1v1h1v1h-1v1h1v1h-1v1h1 1v-8h1v-1h-1-1zm-6 5v1h1 1v-1h-1-1zm2 1v3h1v-3h-1zm-2 0h-1v3h1v-3z" style="fill:#d38441"/>
	<path d="m7 7v1 1h2v-1h-1v-1h-1z" style="fill:#a9c1ff"/>
	<path d="m3 6v1 1h1v1h-1v1h1v1h-1v1h1v1h-1v1h1v1h2v-1-1-1h1v-1h1 1v1h1v1 1 1h2v-1h1v-1h-1v-1h1v-1h-1v-1h1v-1h-1v-1h1v-1-1h-4v1h1v1 1h-1v1h-1-1v-1h-1v-1-1h1v-1h-4z" style="fill:#e9c35b"/>
</svg>
