<svg width="32" height="32" shape-rendering="crispEdges" version="1.1" viewBox="0 0 32 32" xmlns="http://www.w3.org/2000/svg" xmlns:cc="http://creativecommons.org/ns#" xmlns:dc="http://purl.org/dc/elements/1.1/" xmlns:rdf="http://www.w3.org/1999/02/22-rdf-syntax-ns#">
	<metadata>
		<rdf:RDF>
			<cc:Work rdf:about="">
				<dc:format>image/svg+xml</dc:format>
				<dc:type rdf:resource="http://purl.org/dc/dcmitype/StillImage"/>
				<dc:title/>
			</cc:Work>
		</rdf:RDF>
	</metadata>
	<path d="m5 1v1h-2v1h-1v2h-1v26h1v-1h1v-1h1v-1h1v-1h23v-2h1v-1h1v-2h1v-17h-1v-2h-1v-1h-2v-1z" style="fill:#395c98;stroke-width:3.7795"/>
	<path d="m5 0v1h22v-1h-22zm22 1v1h2v-1h-2zm2 1v1h1v-1h-1zm1 1v2h1v-2h-1zm1 2v17h1v-17h-1zm0 17h-1v2h1v-2zm-1 2h-1v1h1v-1zm-1 1h-1v2h1v-2zm-1 2h-23v1h23v-1zm-23 1h-1v1h1v-1zm-1 1h-1v1h1v-1zm-1 1h-1v1h1v-1zm-1 1h-1v1h1v-1zm-1 0v-26h-1v26h1zm0-26h1v-2h-1v2zm1-2h1v-1h-1v1zm1-1h2v-1h-2v1z" style="fill:#000000;stroke-width:5.3451"/>
	<path d="m3 9v1h9v-1h-9zm0 3v1h9v-1h-9zm0 3v1h11v-1h-11zm0 3v1h11v-1h-11z" style="fill:#000000;stroke-width:11.339"/>
	<path d="m8 21v5h1 1 1v-1-1h-1v1h-1v-1h1v-1h-1v-1h1v-1h-1-1zm2 1v1h1v-1h-1zm2-1v5h1 2v-1h-2v-4h-1zm4 0v5h1 1 1v-5h-1-1-1zm4 0v5h1 2v-1-2h-1v2h-1v-3h2v-1h-2-1zm-3 1h1v3h-1v-3z" style="fill:#e9c35b;stroke-width:8.4513"/>
	<path d="m22 2v1h1 1v-1h-1-1zm2 1v1h1v-1h-1zm1 1v1 1h1v-1-1h-1zm0 2h-1v1h1v-1zm-1 1h-1v1h1v-1zm-1 1h-1v1h1v-1zm-1 1h-1v1h1v-1zm-1 1h-1v1h1v-1zm-1 1h-1v1h1v-1zm-1 1h-1v1h1v-1zm-1 1h-3v-3h-1v3 1h4v-1zm-3-3h1v-1h-1v1zm1-1h1v-1h-1v1zm1-1h1v-1h-1v1zm1-1h1v-1h-1v1zm1-1h1v-1h-1v1zm1-1h1v-1h-1v1zm1-1h1v-1h-1v1z" style="fill:#000000;stroke-width:6.5463"/>
	<path d="m22 3v1h-1v1h-1v1h-1v1h-1v1h-1v1h-1v1h1v1h1v1h1v-1h1v-1h1v-1h1v-1h1v-1h1v-1h1v-1-1h-1v-1h-1-1z" style="fill:#d38441;stroke-width:3.7795"/>
	<path d="m15 10v1 1h1v1h1 1v-1-1h-1v-1h-1-1z" style="fill:#e9c35b;stroke-width:3.7795"/>
	<path d="m15 12h1v1h-1z" style="fill:#2b335f;stroke-width:3.7795"/>
	<path d="m5 1v1.0449h21v1h2v1h1v2h1v16h1v-17h-1v-2h-1v-1h-2v-1.0449zm25 21.045h-1v2h1v-1zm-1 2h-1v1h1zm-1 1h-1v2h1v-1zm-24 2v1h1v-1zm0 1h-1v1h1zm-1 1h-1v1h1zm-1 1h-1v1h1z" style="fill:#eeeeee;stroke-width:3.7795"/>
</svg>
