<svg width="16" height="16" shape-rendering="crispEdges" version="1.1" viewBox="0 0 16 16" xmlns="http://www.w3.org/2000/svg" xmlns:cc="http://creativecommons.org/ns#" xmlns:dc="http://purl.org/dc/elements/1.1/" xmlns:rdf="http://www.w3.org/1999/02/22-rdf-syntax-ns#">
	<metadata>
		<rdf:RDF>
			<cc:Work rdf:about="">
				<dc:format>image/svg+xml</dc:format>
				<dc:type rdf:resource="http://purl.org/dc/dcmitype/StillImage"/>
				<dc:title/>
			</cc:Work>
		</rdf:RDF>
	</metadata>
	<g>
		<path d="m1 3v10h1v1h1v1h10v-1h1v-1h1v-10h-1v-1h-1v-1h-10v1h-1v1z" style="fill:#d38441;stroke-width:15"/>
		<path d="m3 0v1h10v-1h-10zm10 1v1h1v-1h-1zm1 1v1h1v-1h-1zm1 1v10h1v-10h-1zm0 10h-1v1h1v-1zm-1 1h-1v1h1v-1zm-1 1h-10v1h10v-1zm-10 0v-1h-1v1h1zm-1-1v-1h-1v1h1zm-1-1v-10h-1v10h1zm0-10h1v-1h-1v1zm1-1h1v-1h-1v1z" style="fill:#000000;stroke-width:3"/>
		<path d="m7 2v1h2v-1h-2zm2 1v3h1v-3h-1zm0 3h-2v1h2v-1zm-2 0v-3h-1v3h1z" style="fill:#000000;stroke-width:2"/>
		<path d="m7 3v3h2v-3h-2zm-3 9v1h1v-1h-1zm7 0v1h1v-1h-1z" style="fill:#edc7b0;stroke-width:.9"/>
		<path d="m6 8v1h-1v1h-1v2h2v1h4v-1h2v-2h-1v-1h-1v-1h-4z" style="fill:#000000;stroke-width:4"/>
		<path d="m12 1v1h1v-1h-1zm1 1v1h1v-1h-1zm1 1v10h1v-10h-1z" style="fill:#eeeeee;stroke-width:.9"/>
	</g>
</svg>
