<svg version="1.1" xmlns="http://www.w3.org/2000/svg">

	<!-- Symbols support paths/not strokes! -->
	<symbol id="cube" viewBox="0 0 674.7 766.8">
		<g fill="var(--black)">
			<path d="M671.8 403 514.2 490.3l-2.6 179.3L669.1 582.2Z"/>
			<path d="M496.4 500.2 338.8 587.6 336.2 766.8l157.5-87.3Z"/>
			<path d="M322.4 585l-151.3-91.5-2.6 176.8 151.3 91.5Z"/>
			<path d="M0 568.4 151.4 659.9l2.6-176.8-151.3-91.5Z"/>
			<path d="M674.7 203.4 517.2 290.7 514.6 469.9l157.5-87.3Z"/>
		</g>
		<g fill="var(--yellow)">
			<path d="M489.5 489.4 336.6 397l-157 87 152.9 92.4Z"/>
			<path d="M331 204.5 173.4 291.8l-2.6 179.3L328.4 383.7Z"/>
			<path d="M2.9 371.5l151.3 91.5 2.6-176.8-151.3-91.5Z"/>
			<path d="M669.2 195.4 516.3 103l-157 87L512.1 282.4Z"/>
			<path d="M498.9 92.4 346.1 0l-157 87 152.9 92.4Z"/>
			<path d="M167 276.4l157-87L171.2 96.9l-157 87Z"/>
		</g>
	</symbol>

	<!-- This worked by using compressed export and vieport in pure pixels -->
	<!-- svg elements belong to the shadow dom -->
	<symbol id="snail" viewBox="0 0 32 28">
			<g transform="translate(-110 -134.34)" shape-rendering="crispEdges">
		<g>
			<path d="m140 134.84h-2m-5.9999 0h-2m9.9999 0.99993h-2m-5.9999 0h-2m12 0.99994h-2m-2 0h-2m-2 0h-1.9999m-2 0h-2m14 0.99994h-2m-2 0h-2m-2 0h-1.9999m-2 0h-2m14 0.99994h-2m-2 0h-2m-2 0h-1.9999m-2 0h-2m14 0.99993h-2m-2 0h-2m-2 0h-1.9999m-2 0h-2m12 0.99994h-2m-5.9999 0h-2m-6.0001 0h-5.9999m22 0.99994h-2m-5.9999 0h-2m-6.0001 0h-5.9999m20 0.99994h-2m-2 0h-1.9999m-6 0h-2m-5.9999 0h-2m22 0.99993h-2m-2 0h-1.9999m-6 0h-2m-5.9999 0h-2m20 0.99994h-2m-5.9999 0h-2m-10 0h-2m22 0.99994h-2m-5.9999 0h-2m-10 0h-2m24 0.99994h-5.9999m-4 0h-2m-10 0h-2m24 0.99993h-5.9999m-4 0h-2m-10 0h-2m26 0.99994h-2m-5.9999 0h-2m-2 0h-2m-10 0h-2m26 0.99994h-2m-5.9999 0h-2m-2 0h-2m-10 0h-2m26 0.99994h-2m-5.9999 0h-2m-2 0h-2m-10 0h-2m26 0.99993h-2m-5.9999 0h-2m-2 0h-2m-10 0h-2m26 0.99994h-2m-5.9999 0h-2m-2 0h-2m-10 0h-2m26 0.99994h-2m-5.9999 0h-2m-2 0h-2m-10 0h-2m24 0.99994h-2m-5.9999 0h-4m-10 0h-2m24 0.99993h-2m-5.9999 0h-4m-10 0h-2m22 0.99994h-2m-7.9999 0h-2m-5.9999 0h-6m24 0.99994h-2m-7.9999 0h-2m-5.9999 0h-6m22 0.99994h-1.9999m-8.0001 0h-2m-9.9999 0h-2m24 0.99993h-1.9999m-8.0001 0h-2m-9.9999 0h-2m22 0.99994h-20m20 0.99994h-20" color="#000000" color-rendering="auto" dominant-baseline="auto" image-rendering="auto" solid-color="#000000" stop-color="#000000" style="font-feature-settings:normal;font-variant-alternates:normal;font-variant-caps:normal;font-variant-east-asian:normal;font-variant-ligatures:normal;font-variant-numeric:normal;font-variant-position:normal;font-variation-settings:normal;inline-size:0;isolation:auto;mix-blend-mode:normal;shape-margin:0;shape-padding:0;text-decoration-color:#000000;text-decoration-line:none;text-decoration-style:solid;text-indent:0;text-orientation:mixed;text-transform:none;white-space:normal"/>
			<path d="m140.01 134.34v2.0012h-2.0009v-2.0012zm-2.0009 2.0005v4.0024h-2.0009v-4.0024zm0 4.0007h2.0009v2.0012h-2.0009v-1.0042zm0 2.0005v2.0012h-2.0009v-2.0012zm-2.0009 2.0004v1.9941h2.0009v2.0012h-6.0028v-2.0012h2.0009v-1.9941zm-2.001 0h-2.0009v-2.0012h2.0009v0.99704zm-2.0009-2.0004h-2.0009v-2.0012h2.0009v0.99704zm0-2.0005v-4.0024h2.0009v4.0024zm0-4.0007h-2.0009v-2.0012h2.0009v0.99704zm-2.0009 0v4.0024h-2.001v-4.0024zm2.0009 11.995v6.0037h-2.0009v-6.0037zm-2.0009 6.0012v2.0012h-4.0019v-12h2.0009v9.999zm-4.0019-9.9947h-2.0009v-2.0012h2.0009v0.99704zm-2.0009-2.0004h-6.0028v-2.0012h6.0028v0.99704zm-6.0028 0v2.0012h-2.001v-2.0012zm-2.001 2.0004v12h2.001v2.0012h-6.0028v-2.0012h2.0009v-12zm-4.0018 13.995v2.0012h-1.9936v-2.0012zm0 2.0005h10.005v-2.0012h2.001v2.0012h8.0036v2.0012h-20.009v-1.0042zm20.009 0v-2.0012h2.0009v2.0012zm2.0009-2.0005v-2.0012h2.001v2.0012zm2.001-2.0004v-2.0012h2.0009v2.0012zm2.0009-2.0004v-6.0037h2.0009v6.0037zm-14.006 4.0007v-2.0012h2.0009v2.0012zm16.007-17.996v-4.0024h1.9936v4.0024z" color="#000000" color-rendering="auto" dominant-baseline="auto" image-rendering="auto" solid-color="#000000" stop-color="#000000" style="font-feature-settings:normal;font-variant-alternates:normal;font-variant-caps:normal;font-variant-east-asian:normal;font-variant-ligatures:normal;font-variant-numeric:normal;font-variant-position:normal;font-variation-settings:normal;inline-size:0;isolation:auto;mix-blend-mode:normal;shape-margin:0;shape-padding:0;text-decoration-color:#000000;text-decoration-line:none;text-decoration-style:solid;text-indent:0;text-orientation:mixed;text-transform:none;white-space:normal"/>
			<path d="m140 136.84h-2m-5.9999 0h-2m9.9999 0.99994h-2m-5.9999 0h-2m9.9999 0.99994h-2m-5.9999 0h-2m9.9999 0.99994h-2m-5.9999 0h-2m5.9999 8.9999h-3.9999m3.9999 0.99994h-3.9999m3.9999 0.99994h-3.9999m3.9999 0.99993h-3.9999m3.9999 0.99994h-3.9999m3.9999 0.99994h-3.9999m1.9999 0.99994h-3.9999m3.9999 0.99993h-3.9999m2 0.99994h-6m6 0.99994h-6m6 0.99994h-8.0001m8.0001 0.99993h-8.0001" color="#000000" color-rendering="auto" dominant-baseline="auto" image-rendering="auto" solid-color="#000000" stop-color="#000000" style="font-feature-settings:normal;font-variant-alternates:normal;font-variant-caps:normal;font-variant-east-asian:normal;font-variant-ligatures:normal;font-variant-numeric:normal;font-variant-position:normal;font-variation-settings:normal;inline-size:0;isolation:auto;mix-blend-mode:normal;shape-margin:0;shape-padding:0;text-decoration-color:#000000;text-decoration-line:none;text-decoration-style:solid;text-indent:0;text-orientation:mixed;text-transform:none;white-space:normal"/>
		</g>
		<path d="m140 136.34v4.0019h-2v-4.0019zm-7.9999 0v4.0019h-2v-4.0019zm3.9999 11.994v6.0029h-2v2.001h-1.9999v4.0019h-8.0001v-2.001h2v-2.001h4v-2.001h2v-6.0029z" color="#000000" color-rendering="auto" dominant-baseline="auto" fill="#ff9798" image-rendering="auto" solid-color="#000000" stop-color="#000000" style="font-feature-settings:normal;font-variant-alternates:normal;font-variant-caps:normal;font-variant-east-asian:normal;font-variant-ligatures:normal;font-variant-numeric:normal;font-variant-position:normal;font-variation-settings:normal;inline-size:0;isolation:auto;mix-blend-mode:normal;shape-margin:0;shape-padding:0;text-decoration-color:#000000;text-decoration-line:none;text-decoration-style:solid;text-indent:0;text-orientation:mixed;text-transform:none;white-space:normal"/>
		<path d="m124 142.84h-5.9999m5.9999 0.99993h-5.9999m7.9999 0.99994h-4m-3.9999 0h-2m10 0.99994h-4m-3.9999 0h-2m10 0.99994h-2m-2 0h-3.9999m7.9999 0.99993h-2m-2 0h-3.9999m7.9999 0.99994h-2m-2 0h-3.9999m7.9999 0.99994h-2m-2 0h-3.9999m7.9999 0.99994h-2m-2 0h-2m-1.9999 0h-2m10 0.99993h-2m-2 0h-2m-1.9999 0h-2m10 0.99994h-2m-4 0h-1.9999m7.9999 0.99994h-2m-4 0h-1.9999m7.9999 0.99994h-4m-2 0h-1.9999m7.9999 0.99993h-4m-2 0h-1.9999m5.9999 0.99994h-4m4 0.99994h-4m2 0.99994h-2m2 0.99993h-2" color="#000000" color-rendering="auto" dominant-baseline="auto" image-rendering="auto" solid-color="#000000" stop-color="#000000" style="font-feature-settings:normal;font-variant-alternates:normal;font-variant-caps:normal;font-variant-east-asian:normal;font-variant-ligatures:normal;font-variant-numeric:normal;font-variant-position:normal;font-variation-settings:normal;inline-size:0;isolation:auto;mix-blend-mode:normal;shape-margin:0;shape-padding:0;text-decoration-color:#000000;text-decoration-line:none;text-decoration-style:solid;text-indent:0;text-orientation:mixed;text-transform:none;white-space:normal"/>
		<path d="m124 142.34v2.0008h2v11.998h-2v2.0008h-2v2.0008h-2v-4.0016h2v-2.0008h2v-8.0032h-2v-1.9936h-3.9999v-2.0008zm-5.9999 2.0002v1.9936h-2v-1.9936zm0 1.9929h3.9999v6.0024h-2v-2.0008h-1.9999v-2.9976zm0 4.0006v2.0008h-2v-2.0008zm0 2.0004h1.9999v4.0016h-1.9999v-2.9976z" color="#000000" color-rendering="auto" dominant-baseline="auto" fill="#d38441" image-rendering="auto" solid-color="#000000" stop-color="#000000" style="font-feature-settings:normal;font-variant-alternates:normal;font-variant-caps:normal;font-variant-east-asian:normal;font-variant-ligatures:normal;font-variant-numeric:normal;font-variant-position:normal;font-variation-settings:normal;inline-size:0;isolation:auto;mix-blend-mode:normal;shape-margin:0;shape-padding:0;text-decoration-color:#000000;text-decoration-line:none;text-decoration-style:solid;text-indent:0;text-orientation:mixed;text-transform:none;white-space:normal"/>
		<path d="m122 144.84h-3.9999m3.9999 0.99993h-3.9999m5.9999 0.99994h-2m-3.9999 0h-2m7.9999 0.99994h-2m-3.9999 0h-2m7.9999 0.99994h-2m-3.9999 0h-2m7.9999 0.99993h-2m-3.9999 0h-2m7.9999 0.99994h-2m-2 0h-1.9999m5.9999 0.99994h-2m-2 0h-1.9999m5.9999 0.99994h-4m-1.9999 0h-2m7.9999 0.99993h-4m-1.9999 0h-2m5.9999 0.99994h-2m-1.9999 0h-2m5.9999 0.99994h-2m-1.9999 0h-2" color="#000000" color-rendering="auto" dominant-baseline="auto" image-rendering="auto" solid-color="#000000" stop-color="#000000" style="font-feature-settings:normal;font-variant-alternates:normal;font-variant-caps:normal;font-variant-east-asian:normal;font-variant-ligatures:normal;font-variant-numeric:normal;font-variant-position:normal;font-variation-settings:normal;inline-size:0;isolation:auto;mix-blend-mode:normal;shape-margin:0;shape-padding:0;text-decoration-color:#000000;text-decoration-line:none;text-decoration-style:solid;text-indent:0;text-orientation:mixed;text-transform:none;white-space:normal"/>
		<path d="m122 144.34v1.9942h-3.9999v-1.9942zm-3.9999 1.9937v4.0026h-2v-4.0026zm0 4.0025h1.9999v2.0013h-1.9999v-0.99708zm0 2.0013v4.0026h-2v-4.0026zm1.9999 0h2v-6.0039h2v8.0052h-2v2.0013h-2v-2.9984z" color="#000000" color-rendering="auto" dominant-baseline="auto" fill="#7e2072" image-rendering="auto" solid-color="#000000" stop-color="#000000" style="font-feature-settings:normal;font-variant-alternates:normal;font-variant-caps:normal;font-variant-east-asian:normal;font-variant-ligatures:normal;font-variant-numeric:normal;font-variant-position:normal;font-variation-settings:normal;inline-size:0;isolation:auto;mix-blend-mode:normal;shape-margin:0;shape-padding:0;text-decoration-color:#000000;text-decoration-line:none;text-decoration-style:solid;text-indent:0;text-orientation:mixed;text-transform:none;white-space:normal"/>
		<path d="m138 148.84h-2m2 0.99994h-2m2 0.99993h-2m2 0.99994h-2m2 0.99994h-2m2 0.99994h-2m0 0.99993h-2m2 0.99994h-2m0 0.99994h-1.9999m-12 0h-1.9999m16 0.99994h-1.9999m-12 0h-1.9999m1.9999 0.99993h-7.9999m7.9999 0.99994h-7.9999" color="#000000" color-rendering="auto" dominant-baseline="auto" image-rendering="auto" solid-color="#000000" stop-color="#000000" style="font-feature-settings:normal;font-variant-alternates:normal;font-variant-caps:normal;font-variant-east-asian:normal;font-variant-ligatures:normal;font-variant-numeric:normal;font-variant-position:normal;font-variation-settings:normal;inline-size:0;isolation:auto;mix-blend-mode:normal;shape-margin:0;shape-padding:0;text-decoration-color:#000000;text-decoration-line:none;text-decoration-style:solid;text-indent:0;text-orientation:mixed;text-transform:none;white-space:normal"/>
		<path d="m138 148.34v5.9996h-2v-5.9996zm-2 6v1.9999h-2v-1.9999zm-2 2v1.9999h-1.9999v-1.9999zm-14 0v3.9998h-7.9999v-1.9999h6v-1.9999z" color="#000000" color-rendering="auto" dominant-baseline="auto" fill="#8b4852" image-rendering="auto" solid-color="#000000" stop-color="#000000" style="font-feature-settings:normal;font-variant-alternates:normal;font-variant-caps:normal;font-variant-east-asian:normal;font-variant-ligatures:normal;font-variant-numeric:normal;font-variant-position:normal;font-variation-settings:normal;inline-size:0;isolation:auto;mix-blend-mode:normal;shape-margin:0;shape-padding:0;text-decoration-color:#000000;text-decoration-line:none;text-decoration-style:solid;text-indent:0;text-orientation:mixed;text-transform:none;white-space:normal"/>
	</g>
	</symbol>

	<symbol id="blog-old" viewBox="0 0 32 32" shape-rendering="crispEdges">
		<path d="m5 1v1h-2v1h-1v2h-1v26h1v-1h1v-1h1v-1h1v-1h23v-2h1v-1h1v-2h1v-17h-1v-2h-1v-1h-2v-1z" style="fill:#395c98;stroke-width:3.7795"/>
		<path d="m5 0v1h22v-1h-22zm22 1v1h2v-1h-2zm2 1v1h1v-1h-1zm1 1v2h1v-2h-1zm1 2v17h1v-17h-1zm0 17h-1v2h1v-2zm-1 2h-1v1h1v-1zm-1 1h-1v2h1v-2zm-1 2h-23v1h23v-1zm-23 1h-1v1h1v-1zm-1 1h-1v1h1v-1zm-1 1h-1v1h1v-1zm-1 1h-1v1h1v-1zm-1 0v-26h-1v26h1zm0-26h1v-2h-1v2zm1-2h1v-1h-1v1zm1-1h2v-1h-2v1z" style="fill:#000000;stroke-width:5.3451"/>
		<path d="m3 9v1h9v-1h-9zm0 3v1h9v-1h-9zm0 3v1h11v-1h-11zm0 3v1h11v-1h-11z" style="fill:#000000;stroke-width:11.339"/>
		<path d="m8 21v5h1 1 1v-1-1h-1v1h-1v-1h1v-1h-1v-1h1v-1h-1-1zm2 1v1h1v-1h-1zm2-1v5h1 2v-1h-2v-4h-1zm4 0v5h1 1 1v-5h-1-1-1zm4 0v5h1 2v-1-2h-1v2h-1v-3h2v-1h-2-1zm-3 1h1v3h-1v-3z" style="fill:#e9c35b;stroke-width:8.4513"/>
		<path d="m22 2v1h1 1v-1h-1-1zm2 1v1h1v-1h-1zm1 1v1 1h1v-1-1h-1zm0 2h-1v1h1v-1zm-1 1h-1v1h1v-1zm-1 1h-1v1h1v-1zm-1 1h-1v1h1v-1zm-1 1h-1v1h1v-1zm-1 1h-1v1h1v-1zm-1 1h-1v1h1v-1zm-1 1h-3v-3h-1v3 1h4v-1zm-3-3h1v-1h-1v1zm1-1h1v-1h-1v1zm1-1h1v-1h-1v1zm1-1h1v-1h-1v1zm1-1h1v-1h-1v1zm1-1h1v-1h-1v1zm1-1h1v-1h-1v1z" style="fill:#000000;stroke-width:6.5463"/>
		<path d="m22 3v1h-1v1h-1v1h-1v1h-1v1h-1v1h-1v1h1v1h1v1h1v-1h1v-1h1v-1h1v-1h1v-1h1v-1h1v-1-1h-1v-1h-1-1z" style="fill:#d38441;stroke-width:3.7795"/>
		<path d="m15 10v1 1h1v1h1 1v-1-1h-1v-1h-1-1z" style="fill:#e9c35b;stroke-width:3.7795"/>
		<path d="m15 12h1v1h-1z" style="fill:#2b335f;stroke-width:3.7795"/>
		<path d="m5 1v1.0449h21v1h2v1h1v2h1v16h1v-17h-1v-2h-1v-1h-2v-1.0449zm25 21.045h-1v2h1v-1zm-1 2h-1v1h1zm-1 1h-1v2h1v-1zm-24 2v1h1v-1zm0 1h-1v1h1zm-1 1h-1v1h1zm-1 1h-1v1h1z" style="fill:#eeeeee;stroke-width:3.7795"/>
	</symbol>

	<symbol id="contact-me" shape-rendering="crispEdges" viewBox="0 0 16 16">
		<path d="m1 3v10h1v1h1v1h10v-1h1v-1h1v-10h-1v-1h-1v-1h-10v1h-1v1z" style="fill:#d38441;stroke-width:15"/>
		<path d="m3 0v1h10v-1h-10zm10 1v1h1v-1h-1zm1 1v1h1v-1h-1zm1 1v10h1v-10h-1zm0 10h-1v1h1v-1zm-1 1h-1v1h1v-1zm-1 1h-10v1h10v-1zm-10 0v-1h-1v1h1zm-1-1v-1h-1v1h1zm-1-1v-10h-1v10h1zm0-10h1v-1h-1v1zm1-1h1v-1h-1v1z" style="fill:#000000;stroke-width:3"/>
		<path d="m7 2v1h2v-1h-2zm2 1v3h1v-3h-1zm0 3h-2v1h2v-1zm-2 0v-3h-1v3h1z" style="fill:#000000;stroke-width:2"/>
		<path d="m7 3v3h2v-3h-2zm-3 9v1h1v-1h-1zm7 0v1h1v-1h-1z" style="fill:#edc7b0;stroke-width:.9"/>
		<path d="m6 8v1h-1v1h-1v2h2v1h4v-1h2v-2h-1v-1h-1v-1h-4z" style="fill:#000000;stroke-width:4"/>
		<path d="m12 1v1h1v-1h-1zm1 1v1h1v-1h-1zm1 1v10h1v-10h-1z" style="fill:#eeeeee;stroke-width:.9"/>
	</symbol>

	<symbol id="blog" shape-rendering="crispEdges" viewBox="0 0 16 16">
		<path d="m3 1v1h-1v1h-1v10h1v1h1v1h10v-1h1v-1h1v-10h-1v-1h-1v-1z" style="fill:#eeeeee"/>
		<path d="m3 1v1h-1v1h-1v1 8 1h1v1h1v1h2v-1h-1v-1h-1v-1h-1v-8h1v-1h1v-1h1v-1h-2z" style="fill:#edc7b0"/>
		<path d="m0 5v1h3v-1zm0 5v1h3v-1z" style="fill:#395c98"/>
		<path d="m13 3v1h-1v1h-1v1h-1v1h-1v1h-1v1h2v-1h1v-1h1v-1h1v-1h1v-1h1v-1h-2z" style="fill:#d38441"/>
		<path d="m14 4v1h1v-1h-1zm0 1h-1v1h1v-1zm-1 1h-1v1h1v-1zm-1 1h-1v1h1v-1zm-1 1h-1v1h1v-1zm-1 1h-1v1h1v-1z" style="fill:#e9c35b"/>
		<g id="blacks">
			<path d="m2 0v1h-1v1h-1v1 2h1v-2h1v-1h1v-1h10v1h1v1h1v10h-1v1h-1v1h-10v-1h-1v-1h-1v-2h-1v2 1h1v1h1v1h12v-1h1v-1h1v-1-10-1h-1v-1h-1v-1h-12zm-2 6v4h1v-4h-1z"/>
			<path d="m4 5v1h5v-1zm0 2v1h3v-1zm0 2v1h3v-1zm0 2v1h4v-1z"/>
			<path d="m8 9h1v1h-1z" style="fill:#000000"/>
		</g>
	</symbol>

</svg>
