<?xml version="1.0" encoding="UTF-8" standalone="no"?>
<!-- Created with Inkscape (http://www.inkscape.org/) -->

<svg
   width="16"
   height="16"
   viewBox="0 0 16 16"
   version="1.1"
   id="svg243"
   xml:space="preserve"
   inkscape:version="1.2 (dc2aedaf03, 2022-05-15)"
   sodipodi:docname="blog_new.svg"
   xmlns:inkscape="http://www.inkscape.org/namespaces/inkscape"
   xmlns:sodipodi="http://sodipodi.sourceforge.net/DTD/sodipodi-0.dtd"
   xmlns="http://www.w3.org/2000/svg"
   xmlns:svg="http://www.w3.org/2000/svg"><sodipodi:namedview
     id="namedview245"
     pagecolor="#505050"
     bordercolor="#eeeeee"
     borderopacity="1"
     inkscape:showpageshadow="0"
     inkscape:pageopacity="0"
     inkscape:pagecheckerboard="0"
     inkscape:deskcolor="#505050"
     inkscape:document-units="px"
     showgrid="true"
     borderlayer="false"
     showborder="true"
     shape-rendering="crispEdges"
     inkscape:zoom="12.443435"
     inkscape:cx="11.773277"
     inkscape:cy="12.697459"
     inkscape:window-width="1920"
     inkscape:window-height="1027"
     inkscape:window-x="-8"
     inkscape:window-y="-8"
     inkscape:window-maximized="1"
     inkscape:current-layer="layer1"><inkscape:grid
       type="xygrid"
       id="grid247"
       empspacing="4" /></sodipodi:namedview><defs
     id="defs240" /><g
     inkscape:label="work"
     inkscape:groupmode="layer"
     id="layer1"><path
       style="display:inline;fill:#eeeeee;stroke:none;stroke-width:1"
       d="M 3,1 V 2 H 2 V 3 H 1 v 2 1 4 1 2 h 1 v 1 h 1 v 1 h 10 v -1 h 1 v -1 h 1 V 3 H 14 V 2 H 13 V 1 Z"
       id="path2575" /><path
       id="path2152"
       style="display:inline;fill:#edc7b0;stroke:none;stroke-width:1"
       d="M 3 1 L 3 2 L 2 2 L 2 3 L 1 3 L 1 4 L 1 12 L 1 13 L 2 13 L 2 14 L 3 14 L 3 15 L 5 15 L 5 14 L 4 14 L 4 13 L 3 13 L 3 12 L 2 12 L 2 4 L 3 4 L 3 3 L 4 3 L 4 2 L 5 2 L 5 1 L 3 1 z " /><path
       id="path2281"
       style="display:inline;fill:#395c98;stroke:none;stroke-width:0.999997"
       d="M 0,5 V 6 H 3 V 5 Z m 0,5 v 1 h 3 v -1 z" /><path
       id="path2318"
       style="display:inline;fill:#d38441;stroke:none;stroke-width:1"
       d="M 13 3 L 13 4 L 12 4 L 12 5 L 11 5 L 11 6 L 10 6 L 10 7 L 9 7 L 9 8 L 8 8 L 8 9 L 10 9 L 10 8 L 11 8 L 11 7 L 12 7 L 12 6 L 13 6 L 13 5 L 14 5 L 14 4 L 15 4 L 15 3 L 13 3 z " /><path
       id="path2350"
       style="display:inline;fill:#e9c35b;stroke:none"
       d="M 14 4 L 14 5 L 15 5 L 15 4 L 14 4 z M 14 5 L 13 5 L 13 6 L 14 6 L 14 5 z M 13 6 L 12 6 L 12 7 L 13 7 L 13 6 z M 12 7 L 11 7 L 11 8 L 12 8 L 12 7 z M 11 8 L 10 8 L 10 9 L 11 9 L 11 8 z M 10 9 L 9 9 L 9 10 L 10 10 L 10 9 z " /><g
       id="blacks"
       inkscape:label="blacks"><path
         id="rect316"
         style="display:inline;stroke:none;stroke-width:1"
         d="M 2 0 L 2 1 L 1 1 L 1 2 L 0 2 L 0 3 L 0 5 L 1 5 L 1 3 L 2 3 L 2 2 L 3 2 L 3 1 L 13 1 L 13 2 L 14 2 L 14 3 L 15 3 L 15 13 L 14 13 L 14 14 L 13 14 L 13 15 L 3 15 L 3 14 L 2 14 L 2 13 L 1 13 L 1 11 L 0 11 L 0 13 L 0 14 L 1 14 L 1 15 L 2 15 L 2 16 L 14 16 L 14 15 L 15 15 L 15 14 L 16 14 L 16 13 L 16 3 L 16 2 L 15 2 L 15 1 L 14 1 L 14 0 L 2 0 z M 0 6 L 0 10 L 1 10 L 1 6 L 0 6 z " /><path
         id="path2211"
         style="display:inline;stroke:none;stroke-width:1"
         d="M 4,5 V 6 H 9 V 5 Z M 4,7 V 8 H 7 V 7 Z m 0,2 v 1 H 7 V 9 Z m 0,2 v 1 h 4 v -1 z" /><path
         id="path2380"
         style="display:inline;fill:#000000;stroke:none"
         d="m 8,9 h 1 v 1 H 8 Z" /></g></g></svg>
