<?xml version="1.0" encoding="UTF-8" standalone="no"?>
<!-- Created with Inkscape (http://www.inkscape.org/) -->

<svg
   width="146"
   height="20.000031"
   viewBox="0 0 146 20.000031"
   version="1.1"
   id="svg243"
   xml:space="preserve"
   inkscape:version="1.2 (dc2aedaf03, 2022-05-15)"
   sodipodi:docname="dovydasxyz.svg"
   xmlns:inkscape="http://www.inkscape.org/namespaces/inkscape"
   xmlns:sodipodi="http://sodipodi.sourceforge.net/DTD/sodipodi-0.dtd"
   xmlns="http://www.w3.org/2000/svg"
   xmlns:svg="http://www.w3.org/2000/svg"><sodipodi:namedview
     id="namedview245"
     pagecolor="#505050"
     bordercolor="#eeeeee"
     borderopacity="1"
     inkscape:showpageshadow="0"
     inkscape:pageopacity="0"
     inkscape:pagecheckerboard="0"
     inkscape:deskcolor="#505050"
     inkscape:document-units="px"
     showgrid="true"
     borderlayer="false"
     showborder="true"
     shape-rendering="crispEdges"
     inkscape:zoom="6.2217173"
     inkscape:cx="36.083285"
     inkscape:cy="41.789106"
     inkscape:window-width="1920"
     inkscape:window-height="1027"
     inkscape:window-x="-8"
     inkscape:window-y="-8"
     inkscape:window-maximized="1"
     inkscape:current-layer="layer1"><inkscape:grid
       type="xygrid"
       id="grid247"
       empspacing="4"
       originx="42.655074"
       originy="-22.163327" /></sodipodi:namedview><defs
     id="defs240" /><g
     inkscape:label="work"
     inkscape:groupmode="layer"
     id="layer1"
     transform="translate(42.655074,-22.163326)"><path
       id="shadow"
       style="font-size:17.2972px;line-height:1;font-family:'Press Start 2P';-inkscape-font-specification:'Press Start 2P';letter-spacing:-1.00797px;opacity:0.89;stroke-width:0.99999"
       d="M 73.104692 26.163326 L 73.104692 28.973873 L 74.507035 28.973873 L 74.507035 30.380123 L 75.909379 30.380123 L 75.909379 31.78442 L 74.507035 31.78442 L 74.507035 33.19067 L 73.104692 33.19067 L 73.104692 36.001217 L 75.909379 36.001217 L 75.909379 33.19067 L 77.311723 33.19067 L 77.311723 31.78442 L 78.714067 31.78442 L 78.714067 33.19067 L 80.11641 33.19067 L 80.11641 36.001217 L 82.921098 36.001217 L 82.921098 33.19067 L 81.518754 33.19067 L 81.518754 31.78442 L 80.11641 31.78442 L 80.11641 30.380123 L 81.518754 30.380123 L 81.518754 28.973873 L 82.921098 28.973873 L 82.921098 26.163326 L 80.11641 26.163326 L 80.11641 28.973873 L 78.714067 28.973873 L 78.714067 30.380123 L 77.311723 30.380123 L 77.311723 28.973873 L 75.909379 28.973873 L 75.909379 26.163326 L 73.104692 26.163326 z M 84.719926 26.163326 L 84.719926 30.380123 L 86.12227 30.380123 L 86.12227 31.78442 L 87.524614 31.78442 L 87.524614 36.001217 L 90.329301 36.001217 L 90.329301 31.78442 L 91.731645 31.78442 L 91.731645 30.380123 L 93.132035 30.380123 L 93.132035 26.163326 L 90.329301 26.163326 L 90.329301 30.380123 L 87.524614 30.380123 L 87.524614 26.163326 L 84.719926 26.163326 z M 93.52852 26.163326 L 93.52852 27.569576 L 99.137895 27.569576 L 99.137895 28.973873 L 97.735551 28.973873 L 97.735551 30.380123 L 96.333207 30.380123 L 96.333207 31.78442 L 94.930864 31.78442 L 94.930864 33.19067 L 93.52852 33.19067 L 93.52852 36.001217 L 103.34493 36.001217 L 103.34493 34.594967 L 97.735551 34.594967 L 97.735551 33.19067 L 99.137895 33.19067 L 99.137895 31.78442 L 100.54024 31.78442 L 100.54024 30.380123 L 101.94258 30.380123 L 101.94258 28.973873 L 103.34493 28.973873 L 103.34493 26.163326 L 93.52852 26.163326 z M -40.65898 27.02856 L -40.65898 42.163326 L -29.873824 42.163326 L -29.873824 40.001217 L -27.715621 40.001217 L -27.715621 37.839107 L -25.559371 37.839107 L -25.559371 31.352779 L -27.715621 31.352779 L -27.715621 29.19067 L -29.873824 29.19067 L -29.873824 27.02856 L -40.65898 27.02856 z M -22.250777 27.02856 L -22.250777 29.19067 L -24.407027 29.19067 L -24.407027 40.001217 L -22.250777 40.001217 L -22.250777 42.163326 L -11.463668 42.163326 L -11.463668 40.001217 L -9.3074177 40.001217 L -9.3074177 29.19067 L -11.463668 29.19067 L -11.463668 27.02856 L -22.250777 27.02856 z M -8.155074 27.02856 L -8.155074 35.676998 L -5.998824 35.676998 L -5.998824 37.839107 L -3.8406209 37.839107 L -3.8406209 40.001217 L -1.6843709 40.001217 L -1.6843709 42.163326 L 0.47383225 42.163326 L 0.47383225 40.001217 L 2.6300823 40.001217 L 2.6300823 37.839107 L 4.7882854 37.839107 L 4.7882854 35.676998 L 6.9445354 35.676998 L 6.9445354 27.02856 L 2.6300823 27.02856 L 2.6300823 33.514888 L 0.47383225 33.514888 L 0.47383225 35.676998 L -1.6843709 35.676998 L -1.6843709 33.514888 L -3.8406209 33.514888 L -3.8406209 27.02856 L -8.155074 27.02856 z M 10.253129 27.02856 L 10.253129 33.514888 L 12.411332 33.514888 L 12.411332 35.676998 L 14.567582 35.676998 L 14.567582 42.163326 L 18.882035 42.163326 L 18.882035 35.676998 L 21.040239 35.676998 L 21.040239 33.514888 L 23.196489 33.514888 L 23.196489 27.02856 L 18.882035 27.02856 L 18.882035 33.514888 L 14.567582 33.514888 L 14.567582 27.02856 L 10.253129 27.02856 z M 24.348832 27.02856 L 24.348832 42.163326 L 35.135942 42.163326 L 35.135942 40.001217 L 37.292192 40.001217 L 37.292192 37.839107 L 39.450395 37.839107 L 39.450395 31.352779 L 37.292192 31.352779 L 37.292192 29.19067 L 35.135942 29.19067 L 35.135942 27.02856 L 24.348832 27.02856 z M 44.915239 27.02856 L 44.915239 29.19067 L 42.758989 29.19067 L 42.758989 31.352779 L 40.600785 31.352779 L 40.600785 42.163326 L 44.915239 42.163326 L 44.915239 37.839107 L 51.387895 37.839107 L 51.387895 42.163326 L 55.702348 42.163326 L 55.702348 31.352779 L 53.544145 31.352779 L 53.544145 29.19067 L 51.387895 29.19067 L 51.387895 27.02856 L 44.915239 27.02856 z M 59.010942 27.02856 L 59.010942 29.19067 L 56.852739 29.19067 L 56.852739 33.514888 L 59.010942 33.514888 L 59.010942 35.676998 L 67.639848 35.676998 L 67.639848 40.001217 L 61.167192 40.001217 L 61.167192 37.839107 L 56.852739 37.839107 L 56.852739 40.001217 L 59.010942 40.001217 L 59.010942 42.163326 L 69.796098 42.163326 L 69.796098 40.001217 L 71.954301 40.001217 L 71.954301 35.676998 L 69.796098 35.676998 L 69.796098 33.514888 L 61.167192 33.514888 L 61.167192 29.19067 L 67.639848 29.19067 L 67.639848 31.352779 L 71.954301 31.352779 L 71.954301 29.19067 L 69.796098 29.19067 L 69.796098 27.02856 L 59.010942 27.02856 z M -36.344527 29.19067 L -32.030074 29.19067 L -32.030074 31.352779 L -29.873824 31.352779 L -29.873824 37.839107 L -32.030074 37.839107 L -32.030074 40.001217 L -36.344527 40.001217 L -36.344527 29.19067 z M -20.092574 29.19067 L -13.621871 29.19067 L -13.621871 40.001217 L -20.092574 40.001217 L -20.092574 29.19067 z M 28.663285 29.19067 L 32.977739 29.19067 L 32.977739 31.352779 L 35.135942 31.352779 L 35.135942 37.839107 L 32.977739 37.839107 L 32.977739 40.001217 L 28.663285 40.001217 L 28.663285 29.19067 z M 47.073442 29.19067 L 49.229692 29.19067 L 49.229692 31.352779 L 51.387895 31.352779 L 51.387895 35.676998 L 44.915239 35.676998 L 44.915239 31.352779 L 47.073442 31.352779 L 47.073442 29.19067 z " /><path
       id="text"
       style="font-size:17.2972px;line-height:1;font-family:'Press Start 2P';-inkscape-font-specification:'Press Start 2P';letter-spacing:-1.00797px;fill:#e9c35b;stroke-width:0.99999"
       d="M 71.110551 22.163326 L 71.110551 24.973873 L 72.512895 24.973873 L 72.512895 26.380123 L 73.915239 26.380123 L 73.915239 27.78442 L 72.512895 27.78442 L 72.512895 29.19067 L 71.110551 29.19067 L 71.110551 32.001217 L 73.915239 32.001217 L 73.915239 29.19067 L 75.315629 29.19067 L 75.315629 27.78442 L 76.717973 27.78442 L 76.717973 29.19067 L 78.120317 29.19067 L 78.120317 32.001217 L 80.925004 32.001217 L 80.925004 29.19067 L 79.52266 29.19067 L 79.52266 27.78442 L 78.120317 27.78442 L 78.120317 26.380123 L 79.52266 26.380123 L 79.52266 24.973873 L 80.925004 24.973873 L 80.925004 22.163326 L 78.120317 22.163326 L 78.120317 24.973873 L 76.717973 24.973873 L 76.717973 26.380123 L 75.315629 26.380123 L 75.315629 24.973873 L 73.915239 24.973873 L 73.915239 22.163326 L 71.110551 22.163326 z M 82.723832 22.163326 L 82.723832 26.380123 L 84.126176 26.380123 L 84.126176 27.78442 L 85.52852 27.78442 L 85.52852 32.001217 L 88.333207 32.001217 L 88.333207 27.78442 L 89.735551 27.78442 L 89.735551 26.380123 L 91.137895 26.380123 L 91.137895 22.163326 L 88.333207 22.163326 L 88.333207 26.380123 L 85.52852 26.380123 L 85.52852 22.163326 L 82.723832 22.163326 z M 91.534379 22.163326 L 91.534379 23.569576 L 97.143754 23.569576 L 97.143754 24.973873 L 95.74141 24.973873 L 95.74141 26.380123 L 94.339067 26.380123 L 94.339067 27.78442 L 92.936723 27.78442 L 92.936723 29.19067 L 91.534379 29.19067 L 91.534379 32.001217 L 101.34883 32.001217 L 101.34883 30.594967 L 95.74141 30.594967 L 95.74141 29.19067 L 97.143754 29.19067 L 97.143754 27.78442 L 98.544145 27.78442 L 98.544145 26.380123 L 99.946489 26.380123 L 99.946489 24.973873 L 101.34883 24.973873 L 101.34883 22.163326 L 91.534379 22.163326 z M -42.655074 23.02856 L -42.655074 38.163326 L -31.867965 38.163326 L -31.867965 36.001217 L -29.711715 36.001217 L -29.711715 33.839107 L -27.553511 33.839107 L -27.553511 27.352779 L -29.711715 27.352779 L -29.711715 25.19067 L -31.867965 25.19067 L -31.867965 23.02856 L -42.655074 23.02856 z M -24.244918 23.02856 L -24.244918 25.19067 L -26.403121 25.19067 L -26.403121 36.001217 L -24.244918 36.001217 L -24.244918 38.163326 L -13.459761 38.163326 L -13.459761 36.001217 L -11.301558 36.001217 L -11.301558 25.19067 L -13.459761 25.19067 L -13.459761 23.02856 L -24.244918 23.02856 z M -10.151168 23.02856 L -10.151168 31.676998 L -7.9929646 31.676998 L -7.9929646 33.839107 L -5.8367146 33.839107 L -5.8367146 36.001217 L -3.6785115 36.001217 L -3.6785115 38.163326 L -1.5222615 38.163326 L -1.5222615 36.001217 L 0.63594163 36.001217 L 0.63594163 33.839107 L 2.7921916 33.839107 L 2.7921916 31.676998 L 4.9503948 31.676998 L 4.9503948 23.02856 L 0.63594163 23.02856 L 0.63594163 29.514889 L -1.5222615 29.514889 L -1.5222615 31.676998 L -3.6785115 31.676998 L -3.6785115 29.514889 L -5.8367146 29.514889 L -5.8367146 23.02856 L -10.151168 23.02856 z M 8.2589885 23.02856 L 8.2589885 29.514889 L 10.415239 29.514889 L 10.415239 31.676998 L 12.573442 31.676998 L 12.573442 38.163326 L 16.887895 38.163326 L 16.887895 31.676998 L 19.044145 31.676998 L 19.044145 29.514889 L 21.202348 29.514889 L 21.202348 23.02856 L 16.887895 23.02856 L 16.887895 29.514889 L 12.573442 29.514889 L 12.573442 23.02856 L 8.2589885 23.02856 z M 22.352739 23.02856 L 22.352739 38.163326 L 33.139848 38.163326 L 33.139848 36.001217 L 35.296098 36.001217 L 35.296098 33.839107 L 37.454301 33.839107 L 37.454301 27.352779 L 35.296098 27.352779 L 35.296098 25.19067 L 33.139848 25.19067 L 33.139848 23.02856 L 22.352739 23.02856 z M 42.919145 23.02856 L 42.919145 25.19067 L 40.762895 25.19067 L 40.762895 27.352779 L 38.604692 27.352779 L 38.604692 38.163326 L 42.919145 38.163326 L 42.919145 33.839107 L 49.391801 33.839107 L 49.391801 38.163326 L 53.706254 38.163326 L 53.706254 27.352779 L 51.548051 27.352779 L 51.548051 25.19067 L 49.391801 25.19067 L 49.391801 23.02856 L 42.919145 23.02856 z M 57.014848 23.02856 L 57.014848 25.19067 L 54.858598 25.19067 L 54.858598 29.514889 L 57.014848 29.514889 L 57.014848 31.676998 L 65.643754 31.676998 L 65.643754 36.001217 L 59.173051 36.001217 L 59.173051 33.839107 L 54.858598 33.839107 L 54.858598 36.001217 L 57.014848 36.001217 L 57.014848 38.163326 L 67.801957 38.163326 L 67.801957 36.001217 L 69.958207 36.001217 L 69.958207 31.676998 L 67.801957 31.676998 L 67.801957 29.514889 L 59.173051 29.514889 L 59.173051 25.19067 L 65.643754 25.19067 L 65.643754 27.352779 L 69.958207 27.352779 L 69.958207 25.19067 L 67.801957 25.19067 L 67.801957 23.02856 L 57.014848 23.02856 z M -38.340621 25.19067 L -34.026168 25.19067 L -34.026168 27.352779 L -31.867965 27.352779 L -31.867965 33.839107 L -34.026168 33.839107 L -34.026168 36.001217 L -38.340621 36.001217 L -38.340621 25.19067 z M -22.088668 25.19067 L -15.616011 25.19067 L -15.616011 36.001217 L -22.088668 36.001217 L -22.088668 25.19067 z M 26.667192 25.19067 L 30.981645 25.19067 L 30.981645 27.352779 L 33.139848 27.352779 L 33.139848 33.839107 L 30.981645 33.839107 L 30.981645 36.001217 L 26.667192 36.001217 L 26.667192 25.19067 z M 45.077348 25.19067 L 47.233598 25.19067 L 47.233598 27.352779 L 49.391801 27.352779 L 49.391801 31.676998 L 42.919145 31.676998 L 42.919145 27.352779 L 45.077348 27.352779 L 45.077348 25.19067 z "
       inkscape:label="text" /></g></svg>
