<?xml version="1.0" encoding="UTF-8" standalone="no"?>
<!-- Created with Inkscape (http://www.inkscape.org/) -->

<svg
   width="16"
   height="16"
   viewBox="0 0 16 16"
   version="1.1"
   id="svg243"
   xml:space="preserve"
   inkscape:version="1.2 (dc2aedaf03, 2022-05-15)"
   sodipodi:docname="home.svg"
   xmlns:inkscape="http://www.inkscape.org/namespaces/inkscape"
   xmlns:sodipodi="http://sodipodi.sourceforge.net/DTD/sodipodi-0.dtd"
   xmlns="http://www.w3.org/2000/svg"
   xmlns:svg="http://www.w3.org/2000/svg"><sodipodi:namedview
     id="namedview245"
     pagecolor="#505050"
     bordercolor="#eeeeee"
     borderopacity="1"
     inkscape:showpageshadow="0"
     inkscape:pageopacity="0"
     inkscape:pagecheckerboard="0"
     inkscape:deskcolor="#505050"
     inkscape:document-units="px"
     showgrid="true"
     borderlayer="false"
     showborder="true"
     shape-rendering="crispEdges"
     inkscape:zoom="22.627417"
     inkscape:cx="6.9605824"
     inkscape:cy="14.71666"
     inkscape:window-width="1920"
     inkscape:window-height="1027"
     inkscape:window-x="-8"
     inkscape:window-y="-8"
     inkscape:window-maximized="1"
     inkscape:current-layer="svg243"><inkscape:grid
       type="xygrid"
       id="grid247"
       empspacing="4" /></sodipodi:namedview><defs
     id="defs240" /><g
     inkscape:label="work"
     inkscape:groupmode="layer"
     id="layer1"><path
       id="path185"
       style="display:inline;stroke:none"
       d="M 6 0 L 6 1 L 5 1 L 5 2 L 4 2 L 4 3 L 3 3 L 3 4 L 2 4 L 2 5 L 1 5 L 1 6 L 2 6 L 3 6 L 3 5 L 4 5 L 4 4 L 5 4 L 5 3 L 6 3 L 6 2 L 7 2 L 7 1 L 8 1 L 10 1 L 10 0 L 8 0 L 6 0 z M 10 1 L 10 2 L 11 2 L 11 1 L 10 1 z M 11 2 L 11 3 L 12 3 L 12 2 L 11 2 z M 12 3 L 12 4 L 13 4 L 13 3 L 12 3 z M 13 4 L 13 5 L 14 5 L 14 4 L 13 4 z M 14 5 L 14 6 L 15 6 L 15 5 L 14 5 z M 15 6 L 15 7 L 16 7 L 16 6 L 15 6 z M 15 7 L 14 7 L 14 15 L 2 15 L 2 7 L 1 7 L 1 16 L 2 16 L 14 16 L 15 16 L 15 7 z M 1 7 L 1 6 L 0 6 L 0 7 L 1 7 z M 8 13 L 8 14 L 9 14 L 9 13 L 8 13 z " /><path
       id="path329"
       style="display:inline;fill:#eeeeee;stroke:none"
       d="M 9 1 L 9 2 L 10 2 L 10 1 L 9 1 z M 10 2 L 10 3 L 11 3 L 11 2 L 10 2 z M 11 3 L 11 4 L 12 4 L 12 3 L 11 3 z M 12 4 L 12 5 L 13 5 L 13 4 L 12 4 z M 13 5 L 13 6 L 14 6 L 14 5 L 13 5 z M 8 7 L 8 8 L 9 8 L 9 7 L 8 7 z " /><path
       id="path366"
       style="display:inline;fill:#8b4852;stroke:none;stroke-width:1"
       d="M 7 1 L 7 2 L 6 2 L 6 3 L 5 3 L 5 4 L 4 4 L 4 5 L 3 5 L 3 6 L 13 6 L 13 5 L 12 5 L 12 4 L 11 4 L 11 3 L 10 3 L 10 2 L 9 2 L 9 1 L 7 1 z M 7 12 L 7 13 L 7 14 L 7 15 L 9 15 L 9 14 L 8 14 L 8 13 L 9 13 L 9 12 L 7 12 z " /><path
       id="path392"
       style="display:inline;fill:#d38441;stroke:none;stroke-width:0.999998"
       d="M 1 6 L 1 7 L 2 7 L 2 15 L 3 15 L 4 15 L 4 14 L 3 14 L 3 13 L 4 13 L 4 12 L 3 12 L 3 11 L 4 11 L 4 10 L 3 10 L 3 9 L 4 9 L 4 8 L 3 8 L 3 6 L 2 6 L 1 6 z M 7 6 L 7 7 L 8 7 L 9 7 L 9 6 L 8 6 L 7 6 z M 9 7 L 9 8 L 9 9 L 10 9 L 10 8 L 10 7 L 9 7 z M 9 9 L 8 9 L 7 9 L 7 10 L 8 10 L 9 10 L 9 9 z M 7 9 L 7 8 L 7 7 L 6 7 L 6 8 L 6 9 L 7 9 z M 13 6 L 13 8 L 12 8 L 12 9 L 13 9 L 13 10 L 12 10 L 12 11 L 13 11 L 13 12 L 12 12 L 12 13 L 13 13 L 13 14 L 12 14 L 12 15 L 13 15 L 14 15 L 14 7 L 15 7 L 15 6 L 14 6 L 13 6 z M 7 11 L 7 12 L 8 12 L 9 12 L 9 11 L 8 11 L 7 11 z M 9 12 L 9 15 L 10 15 L 10 12 L 9 12 z M 7 12 L 6 12 L 6 15 L 7 15 L 7 12 z " /><path
       id="path633"
       style="display:inline;fill:#a9c1ff;stroke:none"
       d="M 7 7 L 7 8 L 7 9 L 9 9 L 9 8 L 8 8 L 8 7 L 7 7 z " /><path
       id="path664"
       style="display:inline;fill:#e9c35b;stroke:none;stroke-width:1"
       d="M 3 6 L 3 7 L 3 8 L 4 8 L 4 9 L 3 9 L 3 10 L 4 10 L 4 11 L 3 11 L 3 12 L 4 12 L 4 13 L 3 13 L 3 14 L 4 14 L 4 15 L 6 15 L 6 14 L 6 13 L 6 12 L 7 12 L 7 11 L 8 11 L 9 11 L 9 12 L 10 12 L 10 13 L 10 14 L 10 15 L 12 15 L 12 14 L 13 14 L 13 13 L 12 13 L 12 12 L 13 12 L 13 11 L 12 11 L 12 10 L 13 10 L 13 9 L 12 9 L 12 8 L 13 8 L 13 7 L 13 6 L 9 6 L 9 7 L 10 7 L 10 8 L 10 9 L 9 9 L 9 10 L 8 10 L 7 10 L 7 9 L 6 9 L 6 8 L 6 7 L 7 7 L 7 6 L 3 6 z " /></g></svg>
