<?xml version="1.0" encoding="UTF-8" standalone="no"?>
<svg
   xmlns:dc="http://purl.org/dc/elements/1.1/"
   xmlns:cc="http://creativecommons.org/ns#"
   xmlns:rdf="http://www.w3.org/1999/02/22-rdf-syntax-ns#"
   xmlns:svg="http://www.w3.org/2000/svg"
   xmlns="http://www.w3.org/2000/svg"
   xmlns:sodipodi="http://sodipodi.sourceforge.net/DTD/sodipodi-0.dtd"
   xmlns:inkscape="http://www.inkscape.org/namespaces/inkscape"
   inkscape:version="1.0 (4035a4fb49, 2020-05-01)"
   shape-rendering="crispEdges"
   id="svg8"
   version="1.1"
   viewBox="0 0 32 32"
   height="32"
   width="32"
   sodipodi:docname="icon_book.svg">
  <defs
     id="defs2" />
  <sodipodi:namedview
     showguides="false"
     inkscape:window-maximized="1"
     inkscape:window-y="-8"
     inkscape:window-x="-8"
     inkscape:window-height="1027"
     inkscape:window-width="1920"
     inkscape:showpageshadow="false"
     units="px"
     showgrid="true"
     inkscape:document-rotation="0"
     inkscape:current-layer="layer1"
     inkscape:document-units="px"
     inkscape:cy="48.512897"
     inkscape:cx="-28.077893"
     inkscape:zoom="3.959798"
     inkscape:pageshadow="2"
     inkscape:pageopacity="0.0"
     borderopacity="1.0"
     bordercolor="#666666"
     pagecolor="#ffffff"
     id="base"
     inkscape:snap-global="true">
    <inkscape:grid
       dotted="false"
       originy="0"
       originx="0"
       empspacing="4"
       id="grid10"
       type="xygrid" />
  </sodipodi:namedview>
  <metadata
     id="metadata5">
    <rdf:RDF>
      <cc:Work
         rdf:about="">
        <dc:format>image/svg+xml</dc:format>
        <dc:type
           rdf:resource="http://purl.org/dc/dcmitype/StillImage" />
        <dc:title></dc:title>
      </cc:Work>
    </rdf:RDF>
  </metadata>
  <g
     id="layer1"
     inkscape:groupmode="layer"
     inkscape:label="Layer 1">
    <path
       d="M 5,1 V 2 H 3 V 3 H 2 V 5 H 1 v 26 h 1 v -1 h 1 v -1 h 1 v -1 h 1 v -1 h 23 v -2 h 1 v -1 h 1 v -2 h 1 V 5 H 30 V 3 H 29 V 2 H 27 V 1 Z"
       style="fill:#395c98;stroke-width:3.77953"
       id="path142" />
    <path
       id="rect30"
       style="fill:#000000;fill-opacity:1;stroke-width:5.34506"
       d="M 5 0 L 5 1 L 27 1 L 27 0 L 5 0 z M 27 1 L 27 2 L 29 2 L 29 1 L 27 1 z M 29 2 L 29 3 L 30 3 L 30 2 L 29 2 z M 30 3 L 30 5 L 31 5 L 31 3 L 30 3 z M 31 5 L 31 22 L 32 22 L 32 5 L 31 5 z M 31 22 L 30 22 L 30 24 L 31 24 L 31 22 z M 30 24 L 29 24 L 29 25 L 30 25 L 30 24 z M 29 25 L 28 25 L 28 27 L 29 27 L 29 25 z M 28 27 L 5 27 L 5 28 L 28 28 L 28 27 z M 5 28 L 4 28 L 4 29 L 5 29 L 5 28 z M 4 29 L 3 29 L 3 30 L 4 30 L 4 29 z M 3 30 L 2 30 L 2 31 L 3 31 L 3 30 z M 2 31 L 1 31 L 1 32 L 2 32 L 2 31 z M 1 31 L 1 5 L 0 5 L 0 31 L 1 31 z M 1 5 L 2 5 L 2 3 L 1 3 L 1 5 z M 2 3 L 3 3 L 3 2 L 2 2 L 2 3 z M 3 2 L 5 2 L 5 1 L 3 1 L 3 2 z " />
    <path
       id="path88"
       style="fill:#000000;fill-opacity:1;stroke-width:11.3386"
       d="M 3 9 L 3 10 L 12 10 L 12 9 L 3 9 z M 3 12 L 3 13 L 12 13 L 12 12 L 3 12 z M 3 15 L 3 16 L 14 16 L 14 15 L 3 15 z M 3 18 L 3 19 L 14 19 L 14 18 L 3 18 z " />
    <path
       id="path99"
       style="fill:#e9c35b;fill-opacity:1;stroke-width:8.45129"
       d="M 8 21 L 8 26 L 9 26 L 10 26 L 11 26 L 11 25 L 11 24 L 10 24 L 10 25 L 9 25 L 9 24 L 10 24 L 10 23 L 9 23 L 9 22 L 10 22 L 10 21 L 9 21 L 8 21 z M 10 22 L 10 23 L 11 23 L 11 22 L 10 22 z M 12 21 L 12 26 L 13 26 L 15 26 L 15 25 L 13 25 L 13 21 L 12 21 z M 16 21 L 16 26 L 17 26 L 18 26 L 19 26 L 19 21 L 18 21 L 17 21 L 16 21 z M 20 21 L 20 26 L 21 26 L 23 26 L 23 25 L 23 23 L 22 23 L 22 25 L 21 25 L 21 22 L 23 22 L 23 21 L 21 21 L 20 21 z M 17 22 L 18 22 L 18 25 L 17 25 L 17 22 z " />
    <path
       id="path134"
       style="fill:#000000;fill-opacity:1;stroke-width:6.54634"
       d="M 22 2 L 22 3 L 23 3 L 24 3 L 24 2 L 23 2 L 22 2 z M 24 3 L 24 4 L 25 4 L 25 3 L 24 3 z M 25 4 L 25 5 L 25 6 L 26 6 L 26 5 L 26 4 L 25 4 z M 25 6 L 24 6 L 24 7 L 25 7 L 25 6 z M 24 7 L 23 7 L 23 8 L 24 8 L 24 7 z M 23 8 L 22 8 L 22 9 L 23 9 L 23 8 z M 22 9 L 21 9 L 21 10 L 22 10 L 22 9 z M 21 10 L 20 10 L 20 11 L 21 11 L 21 10 z M 20 11 L 19 11 L 19 12 L 20 12 L 20 11 z M 19 12 L 18 12 L 18 13 L 19 13 L 19 12 z M 18 13 L 15 13 L 15 10 L 14 10 L 14 13 L 14 14 L 18 14 L 18 13 z M 15 10 L 16 10 L 16 9 L 15 9 L 15 10 z M 16 9 L 17 9 L 17 8 L 16 8 L 16 9 z M 17 8 L 18 8 L 18 7 L 17 7 L 17 8 z M 18 7 L 19 7 L 19 6 L 18 6 L 18 7 z M 19 6 L 20 6 L 20 5 L 19 5 L 19 6 z M 20 5 L 21 5 L 21 4 L 20 4 L 20 5 z M 21 4 L 22 4 L 22 3 L 21 3 L 21 4 z " />
    <path
       d="M 22 3 L 22 4 L 21 4 L 21 5 L 20 5 L 20 6 L 19 6 L 19 7 L 18 7 L 18 8 L 17 8 L 17 9 L 16 9 L 16 10 L 17 10 L 17 11 L 18 11 L 18 12 L 19 12 L 19 11 L 20 11 L 20 10 L 21 10 L 21 9 L 22 9 L 22 8 L 23 8 L 23 7 L 24 7 L 24 6 L 25 6 L 25 5 L 25 4 L 24 4 L 24 3 L 23 3 L 22 3 z "
       style="fill:#d38441;fill-opacity:1;stroke-width:3.77953"
       id="path31" />
    <path
       d="M 15 10 L 15 11 L 15 12 L 16 12 L 16 13 L 17 13 L 18 13 L 18 12 L 18 11 L 17 11 L 17 10 L 16 10 L 15 10 z "
       style="fill:#e9c35b;fill-opacity:1;stroke-width:3.77953"
       id="path107" />
    <path
       d="m 15,12 h 1 v 1 h -1 z"
       style="fill:#2b335f;fill-opacity:1;stroke-width:3.77953"
       id="path124" />
    <path
       d="m 5,1 v 1.0449219 h 21 v 1 h 1 1 v 1 h 1 v 1 1 h 1 V 22.044922 h 1 V 5.0449219 h -1 v -1 -1 h -1 v -1 H 28 27 V 1 Z m 25,21.044922 h -1 v 1 1 h 1 v -1 z m -1,2 h -1 v 1 h 1 z m -1,1 h -1 v 1 1 h 1 v -1 z m -24,2 v 1 h 1 v -1 z m 0,1 H 3 v 1 h 1 z m -1,1 H 2 v 1 h 1 z m -1,1 H 1 v 1 h 1 z"
       style="fill:#eeeeee;fill-opacity:1;stroke-width:3.77953"
       id="path153" />
  </g>
</svg>
