<?xml version="1.0" encoding="UTF-8" standalone="no"?>
<svg
   xmlns:dc="http://purl.org/dc/elements/1.1/"
   xmlns:cc="http://creativecommons.org/ns#"
   xmlns:rdf="http://www.w3.org/1999/02/22-rdf-syntax-ns#"
   xmlns:svg="http://www.w3.org/2000/svg"
   xmlns="http://www.w3.org/2000/svg"
   xmlns:sodipodi="http://sodipodi.sourceforge.net/DTD/sodipodi-0.dtd"
   xmlns:inkscape="http://www.inkscape.org/namespaces/inkscape"
   sodipodi:docname="icon_contact-me.svg"
   width="16"
   height="16"
   viewBox="0 0 16 16"
   version="1.1"
   id="svg8"
   shape-rendering="crispEdges"
   inkscape:version="1.0 (4035a4fb49, 2020-05-01)">
  <defs
     id="defs2" />
  <sodipodi:namedview
     id="base"
     pagecolor="#ffffff"
     bordercolor="#666666"
     borderopacity="1.0"
     inkscape:pageopacity="0.0"
     inkscape:pageshadow="2"
     inkscape:zoom="11.313708"
     inkscape:cx="-17.997458"
     inkscape:cy="14.52496"
     inkscape:document-units="px"
     inkscape:current-layer="layer2"
     inkscape:document-rotation="0"
     showgrid="true"
     units="px"
     inkscape:showpageshadow="false"
     inkscape:window-width="1920"
     inkscape:window-height="1027"
     inkscape:window-x="-8"
     inkscape:window-y="-8"
     inkscape:window-maximized="1">
    <inkscape:grid
       type="xygrid"
       id="grid10"
       empspacing="4"
       originx="0"
       originy="0"
       dotted="false" />
  </sodipodi:namedview>
  <metadata
     id="metadata5">
    <rdf:RDF>
      <cc:Work
         rdf:about="">
        <dc:format>image/svg+xml</dc:format>
        <dc:type
           rdf:resource="http://purl.org/dc/dcmitype/StillImage" />
        <dc:title></dc:title>
      </cc:Work>
    </rdf:RDF>
  </metadata>
  <g
     style="display:inline"
     inkscape:label="work"
     id="layer2"
     inkscape:groupmode="layer">
    <path
       d="m 1,3 v 10 h 1 v 1 h 1 v 1 h 10 v -1 h 1 v -1 h 1 V 3 H 14 V 2 H 13 V 1 H 3 V 2 H 2 v 1 z"
       style="fill:#d38441;stroke-width:15.1182"
       id="path182" />
    <path
       d="M 3 0 L 3 1 L 13 1 L 13 0 L 3 0 z M 13 1 L 13 2 L 14 2 L 14 1 L 13 1 z M 14 2 L 14 3 L 15 3 L 15 2 L 14 2 z M 15 3 L 15 13 L 16 13 L 16 3 L 15 3 z M 15 13 L 14 13 L 14 14 L 15 14 L 15 13 z M 14 14 L 13 14 L 13 15 L 14 15 L 14 14 z M 13 15 L 3 15 L 3 16 L 13 16 L 13 15 z M 3 15 L 3 14 L 2 14 L 2 15 L 3 15 z M 2 14 L 2 13 L 1 13 L 1 14 L 2 14 z M 1 13 L 1 3 L 0 3 L 0 13 L 1 13 z M 1 3 L 2 3 L 2 2 L 1 2 L 1 3 z M 2 2 L 3 2 L 3 1 L 2 1 L 2 2 z "
       style="fill:#000000;stroke-width:2.98799"
       id="rect39" />
    <path
       d="M 7 2 L 7 3 L 9 3 L 9 2 L 7 2 z M 9 3 L 9 6 L 10 6 L 10 3 L 9 3 z M 9 6 L 7 6 L 7 7 L 9 7 L 9 6 z M 7 6 L 7 3 L 6 3 L 6 6 L 7 6 z "
       style="fill:#000000;stroke-width:1.63659"
       id="rect63" />
    <path
       d="M 7 3 L 7 6 L 9 6 L 9 3 L 7 3 z M 4 12 L 4 13 L 5 13 L 5 12 L 4 12 z M 11 12 L 11 13 L 12 13 L 12 12 L 11 12 z "
       style="fill:#edc7b0;stroke-width:0.944885"
       id="rect84" />
    <path
       d="M 6 8 L 6 9 L 5 9 L 5 10 L 4 10 L 4 12 L 6 12 L 6 13 L 10 13 L 10 12 L 12 12 L 12 10 L 11 10 L 11 9 L 10 9 L 10 8 L 6 8 z "
       style="fill:#000000;stroke-width:4.22565"
       id="rect99" />
    <path
       d="M 12 1 L 12 2 L 13 2 L 13 1 L 12 1 z M 13 2 L 13 3 L 14 3 L 14 2 L 13 2 z M 14 3 L 14 13 L 15 13 L 15 3 L 14 3 z "
       style="fill:#eeeeee;stroke-width:0.944885"
       id="rect199" />
  </g>
</svg>
