<?xml version="1.0" encoding="UTF-8" standalone="no"?>
<svg
   xmlns:dc="http://purl.org/dc/elements/1.1/"
   xmlns:cc="http://creativecommons.org/ns#"
   xmlns:rdf="http://www.w3.org/1999/02/22-rdf-syntax-ns#"
   xmlns:svg="http://www.w3.org/2000/svg"
   xmlns="http://www.w3.org/2000/svg"
   xmlns:sodipodi="http://sodipodi.sourceforge.net/DTD/sodipodi-0.dtd"
   xmlns:inkscape="http://www.inkscape.org/namespaces/inkscape"
   shape-rendering="crispEdges"
   sodipodi:docname="logo.svg"
   inkscape:version="1.0 (4035a4fb49, 2020-05-01)"
   id="svg133"
   version="1.1"
   viewBox="0 0 32 28"
   height="28"
   width="32">
  <defs
     id="defs127" />
  <sodipodi:namedview
     fit-margin-bottom="0"
     fit-margin-right="0"
     fit-margin-left="0"
     fit-margin-top="0"
     inkscape:pagecheckerboard="true"
     units="px"
     inkscape:window-maximized="1"
     inkscape:window-y="-8"
     inkscape:window-x="-8"
     inkscape:window-height="1027"
     inkscape:window-width="1920"
     showgrid="false"
     inkscape:document-rotation="0"
     inkscape:current-layer="layer1"
     inkscape:document-units="px"
     inkscape:cy="30.908466"
     inkscape:cx="13.662278"
     inkscape:zoom="11.2"
     inkscape:pageshadow="2"
     inkscape:pageopacity="0.0"
     borderopacity="1.0"
     bordercolor="#666666"
     pagecolor="#ffffff"
     id="base" />
  <metadata
     id="metadata130">
    <rdf:RDF>
      <cc:Work
         rdf:about="">
        <dc:format>image/svg+xml</dc:format>
        <dc:type
           rdf:resource="http://purl.org/dc/dcmitype/StillImage" />
        <dc:title></dc:title>
      </cc:Work>
    </rdf:RDF>
  </metadata>
  <g
     transform="translate(-110.00493,-134.33538)"
     id="layer1"
     inkscape:groupmode="layer"
     inkscape:label="Layer 1">
    <path
       id="path96"
       d="m 140.00491,134.83521 h -2.00002 m -5.99991,0 h -2.00001 m 9.99994,0.99993 h -2.00002 m -5.99991,0 h -2.00001 m 11.99996,0.99994 h -2.00002 m -2.00002,0 h -2.00001 m -2.00002,0 h -1.99988 m -2.00001,0 h -2.00002 m 13.99998,0.99994 h -2.00002 m -2.00002,0 h -2.00001 m -2.00002,0 h -1.99988 m -2.00001,0 h -2.00002 m 13.99998,0.99994 h -2.00002 m -2.00002,0 h -2.00001 m -2.00002,0 h -1.99988 m -2.00001,0 h -2.00002 m 13.99998,0.99993 h -2.00002 m -2.00002,0 h -2.00001 m -2.00002,0 h -1.99988 m -2.00001,0 h -2.00002 m 11.99996,0.99994 h -2.00002 m -5.99991,0 h -2.00001 m -6.00006,0 H 118.005 m 21.99991,0.99994 h -2.00002 m -5.99991,0 h -2.00001 m -6.00006,0 H 118.005 m 19.99989,0.99994 h -2.00001 m -2.00002,0 h -1.99988 m -6.00005,0 h -2.00002 m -5.99991,0 h -2.00002 m 21.99991,0.99993 h -2.00001 m -2.00002,0 h -1.99988 m -6.00005,0 h -2.00002 m -5.99991,0 h -2.00002 m 19.9999,0.99994 h -2.00002 m -5.99991,0 h -2.00002 m -9.99995,0 h -2.00001 m 21.99991,0.99994 h -2.00002 m -5.99991,0 h -2.00002 m -9.99995,0 h -2.00001 m 23.99992,0.99994 h -5.99991 m -4.00003,0 h -2.00002 m -9.99995,0 h -2.00001 m 23.99992,0.99993 h -5.99991 m -4.00003,0 h -2.00002 m -9.99995,0 h -2.00001 m 25.99994,0.99994 h -2.00002 m -5.99991,0 h -2.00001 m -2.00002,0 h -2.00002 m -9.99995,0 h -2.00001 m 25.99994,0.99994 h -2.00002 m -5.99991,0 h -2.00001 m -2.00002,0 h -2.00002 m -9.99995,0 h -2.00001 m 25.99994,0.99994 h -2.00002 m -5.99991,0 h -2.00001 m -2.00002,0 h -2.00002 m -9.99995,0 h -2.00001 m 25.99994,0.99993 h -2.00002 m -5.99991,0 h -2.00001 m -2.00002,0 h -2.00002 m -9.99995,0 h -2.00001 m 25.99994,0.99994 h -2.00002 m -5.99991,0 h -2.00001 m -2.00002,0 h -2.00002 m -9.99995,0 h -2.00001 m 25.99994,0.99994 h -2.00002 m -5.99991,0 h -2.00001 m -2.00002,0 h -2.00002 m -9.99995,0 h -2.00001 m 23.99992,0.99994 h -2.00001 m -5.99991,0 h -4.00004 m -9.99995,0 h -2.00001 m 23.99992,0.99993 h -2.00001 m -5.99991,0 h -4.00004 m -9.99995,0 h -2.00001 m 21.99991,0.99994 h -2.00002 m -7.99993,0 h -2.00002 m -5.99991,0 h -6.00005 m 23.99993,0.99994 h -2.00002 m -7.99993,0 h -2.00002 m -5.99991,0 h -6.00005 m 21.99991,0.99994 h -1.99988 m -8.00007,0 h -2.00002 m -9.99994,0 h -2.00002 m 23.99993,0.99993 h -1.99988 m -8.00007,0 h -2.00002 m -9.99994,0 h -2.00002 m 22.00005,0.99994 h -20.00003 m 20.00003,0.99994 h -20.00003"
       style="color:#000000;font-style:normal;font-variant:normal;font-weight:normal;font-stretch:normal;font-size:medium;line-height:normal;font-family:sans-serif;font-variant-ligatures:normal;font-variant-position:normal;font-variant-caps:normal;font-variant-numeric:normal;font-variant-alternates:normal;font-variant-east-asian:normal;font-feature-settings:normal;font-variation-settings:normal;text-indent:0;text-align:start;text-decoration:none;text-decoration-line:none;text-decoration-style:solid;text-decoration-color:#000000;letter-spacing:normal;word-spacing:normal;text-transform:none;writing-mode:lr-tb;direction:ltr;text-orientation:mixed;dominant-baseline:auto;baseline-shift:baseline;text-anchor:start;white-space:normal;shape-padding:0;shape-margin:0;inline-size:0;clip-rule:nonzero;display:inline;overflow:visible;visibility:visible;isolation:auto;mix-blend-mode:normal;color-interpolation:sRGB;color-interpolation-filters:linearRGB;solid-color:#000000;solid-opacity:1;vector-effect:none;fill:#000000;fill-opacity:1;fill-rule:nonzero;stroke:none;stroke-width:0.999998;stroke-linecap:butt;stroke-linejoin:miter;stroke-miterlimit:4;stroke-dasharray:none;stroke-dashoffset:0;stroke-opacity:1;color-rendering:auto;image-rendering:auto;shape-rendering:crispEdges;text-rendering:auto;enable-background:accumulate;stop-color:#000000" />
    <path
       id="path98"
       d="m 140.01134,134.33609 v 0.99704 1.00419 h -2.00087 v -1.00419 -0.99704 z m -2.00087,2.00051 v 0.99704 1.00419 0.99704 1.00418 h -2.00088 v -1.00418 -0.99704 -1.00419 -0.99704 z m 0,4.00074 h 2.00087 v 0.99704 1.00418 h -2.00087 v -1.00418 z m 0,2.00051 v 0.99704 1.00418 h -2.00088 v -1.00418 -0.99704 z m -2.00088,2.00036 v 0.99704 0.99704 h 2.00088 v 1.00419 0.99705 h -6.00277 v -0.99705 -1.00419 h 2.00087 v -0.99704 -0.99704 z m -2.00102,0 h -2.00087 v -1.00418 -0.99704 h 2.00087 v 0.99704 z m -2.00087,-2.00036 h -2.00088 v -1.00419 -0.99704 h 2.00088 v 0.99704 z m 0,-2.00051 v -1.00419 -0.99704 -1.00418 -0.99704 h 2.00087 v 0.99704 1.00418 0.99704 1.00419 z m 0,-4.00074 h -2.00088 v -1.00418 -0.99704 h 2.00088 v 0.99704 z m -2.00088,0 v 0.99704 1.00419 0.99704 1.00418 h -2.00102 v -1.00418 -0.99704 -1.00419 -0.99704 z m 2.00088,11.99507 v 1.00418 0.99704 1.00419 0.99704 1.00418 0.99704 h -2.00088 v -0.99704 -1.00418 -0.99704 -1.00419 -0.99704 -1.00418 z m -2.00088,6.00124 v 1.00418 0.99705 h -4.00189 v -0.99705 -1.00418 -0.99704 -1.00418 -0.99704 -1.00419 -0.99704 -1.00418 -0.99705 -1.00418 -0.99704 -0.99704 h 2.00087 v 0.99704 0.99704 1.00418 0.99705 1.00418 0.99704 1.00419 0.99704 1.00418 0.99704 z m -4.00189,-9.9947 h -2.00087 v -1.00418 -0.99704 h 2.00087 v 0.99704 z m -2.00087,-2.00036 h -6.00277 v -1.00419 -0.99704 h 6.00277 v 0.99704 z m -6.00277,0 v 0.99704 1.00418 h -2.00102 v -1.00418 -0.99704 z m -2.00102,2.00036 v 0.99704 0.99704 1.00419 0.99705 1.00418 0.99704 1.00418 0.99704 1.00419 0.99704 1.00418 0.99704 h 2.00102 v 1.00418 0.99704 h -6.00277 v -0.99704 -1.00418 h 2.00087 v -0.99704 -1.00418 -0.99704 -1.00419 -0.99704 -1.00418 -0.99704 -1.00418 -0.99705 -1.00419 -0.99704 -0.99704 z m -4.00175,13.99543 v 1.00419 0.99704 h -1.99359 v -0.99704 -1.00419 z m 0,2.00051 h 10.00452 v -0.99704 -1.00418 h 2.00102 v 1.00418 0.99704 h 8.00364 v 0.99704 1.00419 h -20.00918 v -1.00419 z m 20.00918,0 v -0.99704 -1.00418 h 2.00087 v 1.00418 0.99704 z m 2.00087,-2.00051 v -0.99704 -1.00418 h 2.00102 v 1.00418 0.99704 z m 2.00102,-2.00036 v -0.99704 -1.00419 h 2.00088 v 1.00419 0.99704 z m 2.00088,-2.00037 v -0.99704 -1.00418 -0.99704 -1.00419 -0.99704 -1.00418 h 2.00087 v 1.00418 0.99704 1.00419 0.99704 1.00418 0.99704 z m -14.00641,4.00073 v -0.99704 -1.00418 h 2.00087 v 1.00418 0.99704 z m 16.00728,-17.9963 v -1.00419 -0.99704 -1.00418 -0.99704 h 1.99359 v 0.99704 1.00418 0.99704 1.00419 z"
       style="color:#000000;font-style:normal;font-variant:normal;font-weight:normal;font-stretch:normal;font-size:medium;line-height:normal;font-family:sans-serif;font-variant-ligatures:normal;font-variant-position:normal;font-variant-caps:normal;font-variant-numeric:normal;font-variant-alternates:normal;font-variant-east-asian:normal;font-feature-settings:normal;font-variation-settings:normal;text-indent:0;text-align:start;text-decoration:none;text-decoration-line:none;text-decoration-style:solid;text-decoration-color:#000000;letter-spacing:normal;word-spacing:normal;text-transform:none;writing-mode:lr-tb;direction:ltr;text-orientation:mixed;dominant-baseline:auto;baseline-shift:baseline;text-anchor:start;white-space:normal;shape-padding:0;shape-margin:0;inline-size:0;clip-rule:nonzero;display:inline;overflow:visible;visibility:visible;isolation:auto;mix-blend-mode:normal;color-interpolation:sRGB;color-interpolation-filters:linearRGB;solid-color:#000000;solid-opacity:1;vector-effect:none;fill:#000000;fill-opacity:1;fill-rule:nonzero;stroke:none;stroke-width:1.00008;stroke-linecap:butt;stroke-linejoin:miter;stroke-miterlimit:4;stroke-dasharray:none;stroke-dashoffset:0;stroke-opacity:1;color-rendering:auto;image-rendering:auto;shape-rendering:crispEdges;text-rendering:auto;enable-background:accumulate;stop-color:#000000" />
    <path
       id="path102"
       d="m 140.00491,136.83522 h -2.00002 m -5.99991,0 h -2.00001 m 9.99994,0.99994 h -2.00002 m -5.99991,0 h -2.00001 m 9.99994,0.99994 h -2.00002 m -5.99991,0 h -2.00001 m 9.99994,0.99994 h -2.00002 m -5.99991,0 h -2.00001 m 5.99991,8.99986 h -3.9999 m 3.9999,0.99994 h -3.9999 m 3.9999,0.99994 h -3.9999 m 3.9999,0.99993 h -3.9999 m 3.9999,0.99994 h -3.9999 m 3.9999,0.99994 h -3.9999 m 1.99988,0.99994 h -3.99989 m 3.99989,0.99993 h -3.99989 m 2.00001,0.99994 h -6.00005 m 6.00005,0.99994 h -6.00005 m 6.00005,0.99994 h -8.00007 m 8.00007,0.99993 h -8.00007"
       style="color:#000000;font-style:normal;font-variant:normal;font-weight:normal;font-stretch:normal;font-size:medium;line-height:normal;font-family:sans-serif;font-variant-ligatures:normal;font-variant-position:normal;font-variant-caps:normal;font-variant-numeric:normal;font-variant-alternates:normal;font-variant-east-asian:normal;font-feature-settings:normal;font-variation-settings:normal;text-indent:0;text-align:start;text-decoration:none;text-decoration-line:none;text-decoration-style:solid;text-decoration-color:#000000;letter-spacing:normal;word-spacing:normal;text-transform:none;writing-mode:lr-tb;direction:ltr;text-orientation:mixed;dominant-baseline:auto;baseline-shift:baseline;text-anchor:start;white-space:normal;shape-padding:0;shape-margin:0;inline-size:0;clip-rule:nonzero;display:inline;overflow:visible;visibility:visible;isolation:auto;mix-blend-mode:normal;color-interpolation:sRGB;color-interpolation-filters:linearRGB;solid-color:#000000;solid-opacity:1;vector-effect:none;fill:#000000;fill-opacity:1;fill-rule:nonzero;stroke:none;stroke-width:0.999998;stroke-linecap:butt;stroke-linejoin:miter;stroke-miterlimit:4;stroke-dasharray:none;stroke-dashoffset:0;stroke-opacity:1;color-rendering:auto;image-rendering:auto;shape-rendering:crispEdges;text-rendering:auto;enable-background:accumulate;stop-color:#000000" />
    <path
       id="path104"
       d="m 140.00491,136.33538 v 0.99691 1.00406 0.99691 1.00405 h -2.00002 v -1.00405 -0.99691 -1.00406 -0.99691 z m -7.99993,0 v 0.99691 1.00406 0.99691 1.00405 h -2.00001 v -1.00405 -0.99691 -1.00406 -0.99691 z m 3.9999,11.99422 v 1.00406 0.99691 1.00405 0.99691 1.00405 0.99691 h -2.00003 v 1.00406 0.99691 h -1.99987 v 1.00405 0.99691 1.00405 0.99691 h -8.00007 v -0.99691 -1.00405 h 2.00002 v -0.99691 -1.00405 h 4.00004 v -0.99691 -1.00406 h 2.00001 v -0.99691 -1.00405 -0.99691 -1.00405 -0.99691 -1.00406 z"
       style="color:#000000;font-style:normal;font-variant:normal;font-weight:normal;font-stretch:normal;font-size:medium;line-height:normal;font-family:sans-serif;font-variant-ligatures:normal;font-variant-position:normal;font-variant-caps:normal;font-variant-numeric:normal;font-variant-alternates:normal;font-variant-east-asian:normal;font-feature-settings:normal;font-variation-settings:normal;text-indent:0;text-align:start;text-decoration:none;text-decoration-line:none;text-decoration-style:solid;text-decoration-color:#000000;letter-spacing:normal;word-spacing:normal;text-transform:none;writing-mode:lr-tb;direction:ltr;text-orientation:mixed;dominant-baseline:auto;baseline-shift:baseline;text-anchor:start;white-space:normal;shape-padding:0;shape-margin:0;inline-size:0;clip-rule:nonzero;display:inline;overflow:visible;visibility:visible;isolation:auto;mix-blend-mode:normal;color-interpolation:sRGB;color-interpolation-filters:linearRGB;solid-color:#000000;solid-opacity:1;vector-effect:none;fill:#ff9798;fill-opacity:1;fill-rule:nonzero;stroke:none;stroke-width:0.999818;stroke-linecap:butt;stroke-linejoin:miter;stroke-miterlimit:4;stroke-dasharray:none;stroke-dashoffset:0;stroke-opacity:1;color-rendering:auto;image-rendering:auto;shape-rendering:crispEdges;text-rendering:auto;enable-background:accumulate;stop-color:#000000" />
    <path
       id="path108"
       d="M 124.00491,142.83528 H 118.005 m 5.99991,0.99993 H 118.005 m 7.99993,0.99994 h -4.00004 m -3.99989,0 h -2.00002 m 9.99995,0.99994 h -4.00004 m -3.99989,0 h -2.00002 m 9.99995,0.99994 h -2.00002 m -2.00002,0 H 118.005 m 7.99993,0.99993 h -2.00002 m -2.00002,0 H 118.005 m 7.99993,0.99994 h -2.00002 m -2.00002,0 H 118.005 m 7.99993,0.99994 h -2.00002 m -2.00002,0 H 118.005 m 7.99993,0.99994 h -2.00002 m -2.00002,0 h -2.00001 m -1.99988,0 h -2.00002 m 9.99995,0.99993 h -2.00002 m -2.00002,0 h -2.00001 m -1.99988,0 h -2.00002 m 9.99995,0.99994 h -2.00002 m -4.00003,0 H 118.005 m 7.99993,0.99994 h -2.00002 m -4.00003,0 H 118.005 m 7.99993,0.99994 h -4.00004 m -2.00001,0 H 118.005 m 7.99993,0.99993 h -4.00004 m -2.00001,0 H 118.005 m 5.99991,0.99994 h -4.00003 m 4.00003,0.99994 h -4.00003 m 2.00001,0.99994 h -2.00001 m 2.00001,0.99993 h -2.00001"
       style="color:#000000;font-style:normal;font-variant:normal;font-weight:normal;font-stretch:normal;font-size:medium;line-height:normal;font-family:sans-serif;font-variant-ligatures:normal;font-variant-position:normal;font-variant-caps:normal;font-variant-numeric:normal;font-variant-alternates:normal;font-variant-east-asian:normal;font-feature-settings:normal;font-variation-settings:normal;text-indent:0;text-align:start;text-decoration:none;text-decoration-line:none;text-decoration-style:solid;text-decoration-color:#000000;letter-spacing:normal;word-spacing:normal;text-transform:none;writing-mode:lr-tb;direction:ltr;text-orientation:mixed;dominant-baseline:auto;baseline-shift:baseline;text-anchor:start;white-space:normal;shape-padding:0;shape-margin:0;inline-size:0;clip-rule:nonzero;display:inline;overflow:visible;visibility:visible;isolation:auto;mix-blend-mode:normal;color-interpolation:sRGB;color-interpolation-filters:linearRGB;solid-color:#000000;solid-opacity:1;vector-effect:none;fill:#000000;fill-opacity:1;fill-rule:nonzero;stroke:none;stroke-width:0.999998;stroke-linecap:butt;stroke-linejoin:miter;stroke-miterlimit:4;stroke-dasharray:none;stroke-dashoffset:0;stroke-opacity:1;color-rendering:auto;image-rendering:auto;shape-rendering:crispEdges;text-rendering:auto;enable-background:accumulate;stop-color:#000000" />
    <path
       id="path110"
       d="m 124.00491,142.33538 v 0.99683 1.00396 h 2.00002 v 0.99683 0.99682 1.00397 0.99682 1.00398 0.99683 1.00396 0.99683 1.00396 0.99683 1.00397 0.99683 h -2.00002 v 1.00396 0.99683 h -2.00002 v 1.00396 0.99683 h -2.00001 v -0.99683 -1.00396 -0.99683 -1.00396 h 2.00001 v -0.99683 -1.00397 h 2.00002 v -0.99683 -1.00396 -0.99683 -1.00396 -0.99683 -1.00398 -0.99682 -1.00397 h -2.00002 V 145.333 144.33617 H 118.005 v -1.00396 -0.99683 z m -5.99991,2.00022 v 0.99683 0.99682 h -2.00002 v -0.99682 -0.99683 z m 0,1.99293 h 3.99989 v 1.00398 0.99682 1.00397 0.99683 1.00396 0.99684 h -2.00001 v -0.99684 -1.00396 H 118.005 v -0.99683 -1.00397 -0.99682 z m 0,4.0006 v 1.00396 0.99684 h -2.00002 v -0.99684 -1.00396 z m 0,2.00037 h 1.99988 v 1.00396 0.99683 1.00396 0.99683 H 118.005 v -0.99683 -1.00396 -0.99683 z"
       style="color:#000000;font-style:normal;font-variant:normal;font-weight:normal;font-stretch:normal;font-size:medium;line-height:normal;font-family:sans-serif;font-variant-ligatures:normal;font-variant-position:normal;font-variant-caps:normal;font-variant-numeric:normal;font-variant-alternates:normal;font-variant-east-asian:normal;font-feature-settings:normal;font-variation-settings:normal;text-indent:0;text-align:start;text-decoration:none;text-decoration-line:none;text-decoration-style:solid;text-decoration-color:#000000;letter-spacing:normal;word-spacing:normal;text-transform:none;writing-mode:lr-tb;direction:ltr;text-orientation:mixed;dominant-baseline:auto;baseline-shift:baseline;text-anchor:start;white-space:normal;shape-padding:0;shape-margin:0;inline-size:0;clip-rule:nonzero;display:inline;overflow:visible;visibility:visible;isolation:auto;mix-blend-mode:normal;color-interpolation:sRGB;color-interpolation-filters:linearRGB;solid-color:#000000;solid-opacity:1;vector-effect:none;fill:#d38441;fill-opacity:1;fill-rule:nonzero;stroke:none;stroke-width:0.999829;stroke-linecap:butt;stroke-linejoin:miter;stroke-miterlimit:4;stroke-dasharray:none;stroke-dashoffset:0;stroke-opacity:1;color-rendering:auto;image-rendering:auto;shape-rendering:crispEdges;text-rendering:auto;enable-background:accumulate;stop-color:#000000" />
    <path
       id="path114"
       d="M 122.00489,144.8353 H 118.005 m 3.99989,0.99993 H 118.005 m 5.99991,0.99994 h -2.00002 m -3.99989,0 h -2.00002 m 7.99993,0.99994 h -2.00002 m -3.99989,0 h -2.00002 m 7.99993,0.99994 h -2.00002 m -3.99989,0 h -2.00002 m 7.99993,0.99993 h -2.00002 m -3.99989,0 h -2.00002 m 7.99993,0.99994 h -2.00002 m -2.00001,0 H 118.005 m 5.99991,0.99994 h -2.00002 m -2.00001,0 H 118.005 m 5.99991,0.99994 h -4.00003 m -1.99988,0 h -2.00002 m 7.99993,0.99993 h -4.00003 m -1.99988,0 h -2.00002 m 5.99991,0.99994 h -2.00001 m -1.99988,0 h -2.00002 m 5.99991,0.99994 h -2.00001 m -1.99988,0 h -2.00002"
       style="color:#000000;font-style:normal;font-variant:normal;font-weight:normal;font-stretch:normal;font-size:medium;line-height:normal;font-family:sans-serif;font-variant-ligatures:normal;font-variant-position:normal;font-variant-caps:normal;font-variant-numeric:normal;font-variant-alternates:normal;font-variant-east-asian:normal;font-feature-settings:normal;font-variation-settings:normal;text-indent:0;text-align:start;text-decoration:none;text-decoration-line:none;text-decoration-style:solid;text-decoration-color:#000000;letter-spacing:normal;word-spacing:normal;text-transform:none;writing-mode:lr-tb;direction:ltr;text-orientation:mixed;dominant-baseline:auto;baseline-shift:baseline;text-anchor:start;white-space:normal;shape-padding:0;shape-margin:0;inline-size:0;clip-rule:nonzero;display:inline;overflow:visible;visibility:visible;isolation:auto;mix-blend-mode:normal;color-interpolation:sRGB;color-interpolation-filters:linearRGB;solid-color:#000000;solid-opacity:1;vector-effect:none;fill:#000000;fill-opacity:1;fill-rule:nonzero;stroke:none;stroke-width:0.999998;stroke-linecap:butt;stroke-linejoin:miter;stroke-miterlimit:4;stroke-dasharray:none;stroke-dashoffset:0;stroke-opacity:1;color-rendering:auto;image-rendering:auto;shape-rendering:crispEdges;text-rendering:auto;enable-background:accumulate;stop-color:#000000" />
    <path
       id="path116"
       d="m 122.00489,144.33538 v 0.99708 0.99708 H 118.005 v -0.99708 -0.99708 z m -3.99989,1.99374 v 1.00422 0.99708 1.00422 0.99708 h -2.00002 v -0.99708 -1.00422 -0.99708 -1.00422 z m 0,4.00246 h 1.99988 v 1.00422 0.99708 H 118.005 v -0.99708 z m 0,2.0013 v 1.00423 0.99708 1.00422 0.99708 h -2.00002 v -0.99708 -1.00422 -0.99708 -1.00423 z m 1.99988,0 h 2.00001 v -0.99708 -1.00422 -0.99708 -1.00422 -0.99708 -1.00423 h 2.00002 v 1.00423 0.99708 1.00422 0.99708 1.00422 0.99708 1.00423 0.99708 h -2.00002 v 1.00422 0.99708 h -2.00001 v -0.99708 -1.00422 -0.99708 z"
       style="color:#000000;font-style:normal;font-variant:normal;font-weight:normal;font-stretch:normal;font-size:medium;line-height:normal;font-family:sans-serif;font-variant-ligatures:normal;font-variant-position:normal;font-variant-caps:normal;font-variant-numeric:normal;font-variant-alternates:normal;font-variant-east-asian:normal;font-feature-settings:normal;font-variation-settings:normal;text-indent:0;text-align:start;text-decoration:none;text-decoration-line:none;text-decoration-style:solid;text-decoration-color:#000000;letter-spacing:normal;word-spacing:normal;text-transform:none;writing-mode:lr-tb;direction:ltr;text-orientation:mixed;dominant-baseline:auto;baseline-shift:baseline;text-anchor:start;white-space:normal;shape-padding:0;shape-margin:0;inline-size:0;clip-rule:nonzero;display:inline;overflow:visible;visibility:visible;isolation:auto;mix-blend-mode:normal;color-interpolation:sRGB;color-interpolation-filters:linearRGB;solid-color:#000000;solid-opacity:1;vector-effect:none;fill:#7e2072;fill-opacity:1;fill-rule:nonzero;stroke:none;stroke-width:1.00006;stroke-linecap:butt;stroke-linejoin:miter;stroke-miterlimit:4;stroke-dasharray:none;stroke-dashoffset:0;stroke-opacity:1;color-rendering:auto;image-rendering:auto;shape-rendering:crispEdges;text-rendering:auto;enable-background:accumulate;stop-color:#000000" />
    <path
       id="path120"
       d="m 138.00489,148.83519 h -2.00001 m 2.00001,0.99994 h -2.00001 m 2.00001,0.99993 h -2.00001 m 2.00001,0.99994 h -2.00001 m 2.00001,0.99994 h -2.00001 m 2.00001,0.99994 h -2.00001 m 0,0.99993 h -2.00002 m 2.00002,0.99994 h -2.00002 m 0,0.99994 h -1.99988 m -12.0001,0 H 118.005 m 15.99986,0.99994 h -1.99988 m -12.0001,0 H 118.005 m 1.99988,0.99993 h -7.99993 m 7.99993,0.99994 h -7.99993"
       style="color:#000000;font-style:normal;font-variant:normal;font-weight:normal;font-stretch:normal;font-size:medium;line-height:normal;font-family:sans-serif;font-variant-ligatures:normal;font-variant-position:normal;font-variant-caps:normal;font-variant-numeric:normal;font-variant-alternates:normal;font-variant-east-asian:normal;font-feature-settings:normal;font-variation-settings:normal;text-indent:0;text-align:start;text-decoration:none;text-decoration-line:none;text-decoration-style:solid;text-decoration-color:#000000;letter-spacing:normal;word-spacing:normal;text-transform:none;writing-mode:lr-tb;direction:ltr;text-orientation:mixed;dominant-baseline:auto;baseline-shift:baseline;text-anchor:start;white-space:normal;shape-padding:0;shape-margin:0;inline-size:0;clip-rule:nonzero;display:inline;overflow:visible;visibility:visible;isolation:auto;mix-blend-mode:normal;color-interpolation:sRGB;color-interpolation-filters:linearRGB;solid-color:#000000;solid-opacity:1;vector-effect:none;fill:#000000;fill-opacity:1;fill-rule:nonzero;stroke:none;stroke-width:0.999998;stroke-linecap:butt;stroke-linejoin:miter;stroke-miterlimit:4;stroke-dasharray:none;stroke-dashoffset:0;stroke-opacity:1;color-rendering:auto;image-rendering:auto;shape-rendering:crispEdges;text-rendering:auto;enable-background:accumulate;stop-color:#000000" />
    <path
       id="path122"
       d="m 138.00489,148.33538 v 1.00422 0.99565 1.00422 0.99566 1.00422 0.99565 h -2.00001 v -0.99565 -1.00422 -0.99566 -1.00422 -0.99565 -1.00422 z m -2.00001,6.00005 v 1.00422 0.99565 h -2.00002 v -0.99565 -1.00422 z m -2.00002,2.00002 v 1.00422 0.99565 h -1.99988 v -0.99565 -1.00422 z m -13.99998,0 v 1.00422 0.99565 1.00423 0.99565 h -7.99993 v -0.99565 -1.00423 h 6.00005 v -0.99565 -1.00422 z"
       style="color:#000000;font-style:normal;font-variant:normal;font-weight:normal;font-stretch:normal;font-size:medium;line-height:normal;font-family:sans-serif;font-variant-ligatures:normal;font-variant-position:normal;font-variant-caps:normal;font-variant-numeric:normal;font-variant-alternates:normal;font-variant-east-asian:normal;font-feature-settings:normal;font-variation-settings:normal;text-indent:0;text-align:start;text-decoration:none;text-decoration-line:none;text-decoration-style:solid;text-decoration-color:#000000;letter-spacing:normal;word-spacing:normal;text-transform:none;writing-mode:lr-tb;direction:ltr;text-orientation:mixed;dominant-baseline:auto;baseline-shift:baseline;text-anchor:start;white-space:normal;shape-padding:0;shape-margin:0;inline-size:0;clip-rule:nonzero;display:inline;overflow:visible;visibility:visible;isolation:auto;mix-blend-mode:normal;color-interpolation:sRGB;color-interpolation-filters:linearRGB;solid-color:#000000;solid-opacity:1;vector-effect:none;fill:#8b4852;fill-opacity:1;fill-rule:nonzero;stroke:none;stroke-width:0.999749;stroke-linecap:butt;stroke-linejoin:miter;stroke-miterlimit:4;stroke-dasharray:none;stroke-dashoffset:0;stroke-opacity:1;color-rendering:auto;image-rendering:auto;shape-rendering:crispEdges;text-rendering:auto;enable-background:accumulate;stop-color:#000000" />
  </g>
</svg>
