<?xml version="1.0" encoding="UTF-8" standalone="no"?>
<!-- Created with Inkscape (http://www.inkscape.org/) -->

<svg
   width="16"
   height="16"
   viewBox="0 0 16 16"
   version="1.1"
   id="svg243"
   xml:space="preserve"
   inkscape:version="1.2 (dc2aedaf03, 2022-05-15)"
   sodipodi:docname="updated.svg"
   xmlns:inkscape="http://www.inkscape.org/namespaces/inkscape"
   xmlns:sodipodi="http://sodipodi.sourceforge.net/DTD/sodipodi-0.dtd"
   xmlns="http://www.w3.org/2000/svg"
   xmlns:svg="http://www.w3.org/2000/svg"><sodipodi:namedview
     id="namedview245"
     pagecolor="#505050"
     bordercolor="#eeeeee"
     borderopacity="1"
     inkscape:showpageshadow="0"
     inkscape:pageopacity="0"
     inkscape:pagecheckerboard="0"
     inkscape:deskcolor="#505050"
     inkscape:document-units="px"
     showgrid="true"
     borderlayer="false"
     showborder="true"
     shape-rendering="crispEdges"
     inkscape:zoom="8.7988369"
     inkscape:cx="-1.9888992"
     inkscape:cy="-7.1600373"
     inkscape:window-width="1920"
     inkscape:window-height="1027"
     inkscape:window-x="-8"
     inkscape:window-y="-8"
     inkscape:window-maximized="1"
     inkscape:current-layer="svg243"><inkscape:grid
       type="xygrid"
       id="grid247"
       empspacing="4" /></sodipodi:namedview><defs
     id="defs240" /><g
     inkscape:label="work"
     inkscape:groupmode="layer"
     id="layer1"><path
       id="path409"
       style="display:inline;fill:#eeeeee;stroke:none;stroke-width:1"
       d="M 4,2 V 3 H 3 V 4 H 2 v 8 h 1 v 1 h 1 v 1 h 8 v -1 h 1 v -1 h 1 V 4 H 13 V 3 H 12 V 2 H 11 10 6 5 Z" /><path
       id="path252"
       style="display:inline;stroke:none;stroke-width:1;fill:#000000"
       d="M 2 0 L 2 1 L 1 1 L 1 2 L 0 2 L 0 3 L 0 13 L 0 14 L 1 14 L 1 15 L 2 15 L 2 16 L 14 16 L 14 15 L 15 15 L 15 14 L 16 14 L 16 13 L 16 3 L 16 2 L 15 2 L 15 1 L 14 1 L 14 0 L 11 0 L 11 1 L 13 1 L 13 2 L 14 2 L 14 3 L 15 3 L 15 13 L 14 13 L 14 14 L 13 14 L 13 15 L 3 15 L 3 14 L 2 14 L 2 13 L 1 13 L 1 3 L 2 3 L 2 2 L 3 2 L 3 1 L 5 1 L 5 0 L 2 0 z M 4 5 L 4 6 L 3 6 L 3 7 L 4 7 L 4 8 L 5 8 L 5 7 L 6 7 L 6 6 L 5 6 L 5 5 L 4 5 z M 9 5 L 9 6 L 10 6 L 10 5 L 9 5 z M 7 7 L 7 8 L 8 8 L 8 7 L 7 7 z M 9 7 L 9 8 L 10 8 L 10 7 L 9 7 z M 3 9 L 3 10 L 4 10 L 4 9 L 3 9 z M 5 9 L 5 10 L 6 10 L 6 9 L 5 9 z M 7 9 L 7 10 L 8 10 L 8 9 L 7 9 z M 9 9 L 9 10 L 10 10 L 10 9 L 9 9 z M 3 11 L 3 12 L 4 12 L 4 11 L 3 11 z M 5 11 L 5 12 L 6 12 L 6 11 L 5 11 z M 7 11 L 7 12 L 8 12 L 8 11 L 7 11 z M 9 11 L 9 12 L 10 12 L 10 11 L 9 11 z " /><path
       style="display:inline;stroke:none;stroke-width:1"
       d="m 6,0 v 1 h 4 V 0 Z"
       id="path221" /><path
       id="path247"
       style="display:inline;fill:#395c98;stroke:none;stroke-width:1"
       d="M 5 0 L 5 3 L 6 3 L 6 0 L 5 0 z M 10 0 L 10 3 L 11 3 L 11 0 L 10 0 z " /><path
       id="path271"
       style="display:inline;fill:#edc7b0;stroke:none;stroke-width:1"
       d="M 3 1 L 3 2 L 2 2 L 2 3 L 1 3 L 1 4 L 1 12 L 1 13 L 2 13 L 2 14 L 3 14 L 3 15 L 13 15 L 13 14 L 14 14 L 14 13 L 15 13 L 15 12 L 15 4 L 15 3 L 14 3 L 14 2 L 13 2 L 13 1 L 11 1 L 11 2 L 12 2 L 12 3 L 13 3 L 13 4 L 14 4 L 14 12 L 13 12 L 13 13 L 12 13 L 12 14 L 4 14 L 4 13 L 3 13 L 3 12 L 2 12 L 2 4 L 3 4 L 3 3 L 4 3 L 4 2 L 5 2 L 5 1 L 3 1 z M 6 1 L 6 2 L 10 2 L 10 1 L 6 1 z " /><path
       id="path375"
       style="display:inline;fill:#d4186c;stroke:none"
       d="M 11 5 L 11 6 L 12 6 L 12 5 L 11 5 z M 11 7 L 11 8 L 12 8 L 12 7 L 11 7 z M 11 9 L 11 10 L 12 10 L 12 9 L 11 9 z M 11 11 L 11 12 L 12 12 L 12 11 L 11 11 z " /><path
       id="path383"
       style="display:inline;fill:#e9c35b;stroke:none"
       d="M 7,5 H 8 V 6 H 7 Z" /></g></svg>
